<svg xmlns="http://www.w3.org/2000/svg" width="1360" height="800" viewBox="0 0 680 400" xmlns:c2pa="http://c2pa.org/manifest"><metadata><c2pa:manifest>AAAWgmp1bWIAAAAeanVtZGMycGEAEQAQgAAAqgA4m3EDYzJwYQAAABZcanVtYgAAAEdqdW1kYzJtYQARABCAAACqADibcQN1cm46YzJwYTowYjg2MjVjMi1jNGUyLTQ5MTYtYmEwZS1jMTllZjE5MGM0NmMAAAADl2p1bWIAAAApanVtZGMyYXMAEQAQgAAAqgA4m3EDYzJwYS5hc3NlcnRpb25zAAAAALxqdW1iAAAARGp1bWRjYm9yABEAEIAAAKoAOJtxE2MycGEuaW5ncmVkaWVudC52MwAAAAAYYzJzaHiOpsfY5hJ8zAcGph9Vb30AAABwY2JvcqNpZGM6Zm9ybWF0bWltYWdlL3N2Zyt4bWxqaW5zdGFuY2VJRHgseG1wOmlpZDowNGYyYzhmNy0xMDhmLTQyNjQtODE1My1iOWZhNGVkMjI4YThscmVsYXRpb25zaGlwaHBhcmVudE9mAAAB4mp1bWIAAABBanVtZGNib3IAEQAQgAAAqgA4m3ETYzJwYS5hY3Rpb25zLnYyAAAAABhjMnNoXCo2WBxM2wDbBUInzg78XAAAAZljYm9yomdhY3Rpb25zgqJmYWN0aW9ua2MycGEub3BlbmVkanBhcmFtZXRlcnOha2luZ3JlZGllbnRzgaJjdXJseC1zZWxmI2p1bWJmPWMycGEuYXNzZXJ0aW9ucy9jMnBhLmluZ3JlZGllbnQudjNkaGFzaFgg0SOY0vwqvGo1bC20pbTkGC6z/u4FycWnj1b8Ys4cEFWkZmFjdGlvbngdY29tLmFudGhyb3BpYy5jbGF1ZGUucHJvdmlkZWRqcGFyYW1ldGVyc6F4H2NvbS5hbnRocm9waWMub3JpZ2luLWNvbmZpZGVuY2VndW5rbm93bmtkZXNjcmlwdGlvbnhmQ2xhdWRlIHByb3ZpZGVkIHRoaXMgZmlsZSBhdCB0aGUgcmVxdWVzdCBvZiBhIHVzZXIgYW5kIG1heSBoYXZlIGNyZWF0ZWQgb3IgbW9kaWZpZWQgdGhlIGZpbGUgY29udGVudHMubXNvZnR3YXJlQWdlbnShZG5hbWVmQ2xhdWRlcmFsbEFjdGlvbnNJbmNsdWRlZPUAAADIanVtYgAAAEBqdW1kY2JvcgARABCAAACqADibcRNjMnBhLmhhc2guZGF0YQAAAAAYYzJzaK0gQ0Pp1ZXVs5fRoBz618wAAACAY2JvcqVjYWxnZnNoYTI1NmNwYWRNAAAAAAAAAAAAAAAAAGRoYXNoWCAKBwwGbT+wM8nebDtiFk7gpTdBk/Ij1KgBhX28Z7rdiGRuYW1lbmp1bWJmIG1hbmlmZXN0amV4Y2x1c2lvbnOBomVzdGFydBiXZmxlbmd0aBkeBAAAAj5qdW1iAAAAJ2p1bWRjMmNsABEAEIAAAKoAOJtxA2MycGEuY2xhaW0udjIAAAACD2Nib3KlY2FsZ2ZzaGEyNTZpc2lnbmF0dXJleE1zZWxmI2p1bWJmPS9jMnBhL3VybjpjMnBhOjBiODYyNWMyLWM0ZTItNDkxNi1iYTBlLWMxOWVmMTkwYzQ2Yy9jMnBhLnNpZ25hdHVyZWppbnN0YW5jZUlEeCx4bXA6aWlkOjQ3ZDg5Yjg1LWNiYmMtNGEyZi05YTAwLTExYzdjNjRmYzk0MXJjcmVhdGVkX2Fzc2VydGlvbnODomN1cmx4LXNlbGYjanVtYmY9YzJwYS5hc3NlcnRpb25zL2MycGEuaW5ncmVkaWVudC52M2RoYXNoWCDRI5jS/Cq8ajVsLbSltOQYLrP+7gXJxaePVvxizhwQVaJjdXJseCpzZWxmI2p1bWJmPWMycGEuYXNzZXJ0aW9ucy9jMnBhLmFjdGlvbnMudjJkaGFzaFggFhXeFIOoMRi94nexfJHPrqsSidS1ILiAjAPnQi5AU02iY3VybHgpc2VsZiNqdW1iZj1jMnBhLmFzc2VydGlvbnMvYzJwYS5oYXNoLmRhdGFkaGFzaFgg6y5JswZy6sQGRtwUIyno1V9P0qiokCq7XnoLB0zcbVB0Y2xhaW1fZ2VuZXJhdG9yX2luZm+jZG5hbWVvQW50aHJvcGljIEZpbGVzZ3ZlcnNpb25lMS4wLjBrc3BlY1ZlcnNpb25lMi40LjAAABA4anVtYgAAAChqdW1kYzJjcwARABCAAACqADibcQNjMnBhLnNpZ25hdHVyZQAAABAIY2JvctKEWQISogEmGCFZAgowggIGMIIBjaADAgECAhRA5aAK7sI50L64g/oGQgU9Z1UTADAKBggqhkjOPQQDAzBJMRcwFQYDVQQKEw5BbnRocm9waWMsIFBCQzEuMCwGA1UEAxMlQW50aHJvcGljIENvbnRlbnQgQ3JlZGVudGlhbHMgUm9vdCBDQTAeFw0yNjA4MDcxODQzNTZaFw0yODA4MDYxOTQzNTZaMEQxFzAVBgNVBAoTDkFudGhyb3BpYywgUEJDMSkwJwYDVQQDEyBBbnRocm9waWMgQ2xhdWRlIENvbnRlbnQgU2lnbmluZzBZMBMGByqGSM49AgEGCCqGSM49AwEHA0IABJh6CmvLUBgFFNU0vUKlOVtE6djd17L5SuwX0LemFisBM3dkd/3cyjxFA3Qo5S46fX0/ihY0VZ7mfb9KF703t5OjWDBWMA4GA1UdDwEB/wQEAwIHgDAVBgNVHSUEDjAMBgorBgEEAYPoXgIBMAwGA1UdEwEB/wQCMAAwHwYDVR0jBBgwFoAUzlHiBIFOZFsj+OPEz5o+nMHXXMIwCgYIKoZIzj0EAwMDZwAwZAIwMXMdFJ4BetLLVY7ORuE9noqbbAZOZn/aArXyTwFAZfKrPzxF2vPoJNf1+UCdg1XGAjBwX1zd9WGqYkqmL5SFqw1QySjr1zJfpJM9+1rdDwSPLMOPOjKuiXjoU/pUUeG9RwmhY3BhZFkNngAAAAAAAAAAAAAAAAAAAAAAAAAAAAAAAAAAAAAAAAAAAAAAAAAAAAAAAAAAAAAAAAAAAAAAAAAAAAAAAAAAAAAAAAAAAAAAAAAAAAAAAAAAAAAAAAAAAAAAAAAAAAAAAAAAAAAAAAAAAAAAAAAAAAAAAAAAAAAAAAAAAAAAAAAAAAAAAAAAAAAAAAAAAAAAAAAAAAAAAAAAAAAAAAAAAAAAAAAAAAAAAAAAAAAAAAAAAAAAAAAAAAAAAAAAAAAAAAAAAAAAAAAAAAAAAAAAAAAAAAAAAAAAAAAAAAAAAAAAAAAAAAAAAAAAAAAAAAAAAAAAAAAAAAAAAAAAAAAAAAAAAAAAAAAAAAAAAAAAAAAAAAAAAAAAAAAAAAAAAAAAAAAAAAAAAAAAAAAAAAAAAAAAAAAAAAAAAAAAAAAAAAAAAAAAAAAAAAAAAAAAAAAAAAAAAAAAAAAAAAAAAAAAAAAAAAAAAAAAAAAAAAAAAAAAAAAAAAAAAAAAAAAAAAAAAAAAAAAAAAAAAAAAAAAAAAAAAAAAAAAAAAAAAAAAAAAAAAAAAAAAAAAAAAAAAAAAAAAAAAAAAAAAAAAAAAAAAAAAAAAAAAAAAAAAAAAAAAAAAAAAAAAAAAAAAAAAAAAAAAAAAAAAAAAAAAAAAAAAAAAAAAAAAAAAAAAAAAAAAAAAAAAAAAAAAAAAAAAAAAAAAAAAAAAAAAAAAAAAAAAAAAAAAAAAAAAAAAAAAAAAAAAAAAAAAAAAAAAAAAAAAAAAAAAAAAAAAAAAAAAAAAAAAAAAAAAAAAAAAAAAAAAAAAAAAAAAAAAAAAAAAAAAAAAAAAAAAAAAAAAAAAAAAAAAAAAAAAAAAAAAAAAAAAAAAAAAAAAAAAAAAAAAAAAAAAAAAAAAAAAAAAAAAAAAAAAAAAAAAAAAAAAAAAAAAAAAAAAAAAAAAAAAAAAAAAAAAAAAAAAAAAAAAAAAAAAAAAAAAAAAAAAAAAAAAAAAAAAAAAAAAAAAAAAAAAAAAAAAAAAAAAAAAAAAAAAAAAAAAAAAAAAAAAAAAAAAAAAAAAAAAAAAAAAAAAAAAAAAAAAAAAAAAAAAAAAAAAAAAAAAAAAAAAAAAAAAAAAAAAAAAAAAAAAAAAAAAAAAAAAAAAAAAAAAAAAAAAAAAAAAAAAAAAAAAAAAAAAAAAAAAAAAAAAAAAAAAAAAAAAAAAAAAAAAAAAAAAAAAAAAAAAAAAAAAAAAAAAAAAAAAAAAAAAAAAAAAAAAAAAAAAAAAAAAAAAAAAAAAAAAAAAAAAAAAAAAAAAAAAAAAAAAAAAAAAAAAAAAAAAAAAAAAAAAAAAAAAAAAAAAAAAAAAAAAAAAAAAAAAAAAAAAAAAAAAAAAAAAAAAAAAAAAAAAAAAAAAAAAAAAAAAAAAAAAAAAAAAAAAAAAAAAAAAAAAAAAAAAAAAAAAAAAAAAAAAAAAAAAAAAAAAAAAAAAAAAAAAAAAAAAAAAAAAAAAAAAAAAAAAAAAAAAAAAAAAAAAAAAAAAAAAAAAAAAAAAAAAAAAAAAAAAAAAAAAAAAAAAAAAAAAAAAAAAAAAAAAAAAAAAAAAAAAAAAAAAAAAAAAAAAAAAAAAAAAAAAAAAAAAAAAAAAAAAAAAAAAAAAAAAAAAAAAAAAAAAAAAAAAAAAAAAAAAAAAAAAAAAAAAAAAAAAAAAAAAAAAAAAAAAAAAAAAAAAAAAAAAAAAAAAAAAAAAAAAAAAAAAAAAAAAAAAAAAAAAAAAAAAAAAAAAAAAAAAAAAAAAAAAAAAAAAAAAAAAAAAAAAAAAAAAAAAAAAAAAAAAAAAAAAAAAAAAAAAAAAAAAAAAAAAAAAAAAAAAAAAAAAAAAAAAAAAAAAAAAAAAAAAAAAAAAAAAAAAAAAAAAAAAAAAAAAAAAAAAAAAAAAAAAAAAAAAAAAAAAAAAAAAAAAAAAAAAAAAAAAAAAAAAAAAAAAAAAAAAAAAAAAAAAAAAAAAAAAAAAAAAAAAAAAAAAAAAAAAAAAAAAAAAAAAAAAAAAAAAAAAAAAAAAAAAAAAAAAAAAAAAAAAAAAAAAAAAAAAAAAAAAAAAAAAAAAAAAAAAAAAAAAAAAAAAAAAAAAAAAAAAAAAAAAAAAAAAAAAAAAAAAAAAAAAAAAAAAAAAAAAAAAAAAAAAAAAAAAAAAAAAAAAAAAAAAAAAAAAAAAAAAAAAAAAAAAAAAAAAAAAAAAAAAAAAAAAAAAAAAAAAAAAAAAAAAAAAAAAAAAAAAAAAAAAAAAAAAAAAAAAAAAAAAAAAAAAAAAAAAAAAAAAAAAAAAAAAAAAAAAAAAAAAAAAAAAAAAAAAAAAAAAAAAAAAAAAAAAAAAAAAAAAAAAAAAAAAAAAAAAAAAAAAAAAAAAAAAAAAAAAAAAAAAAAAAAAAAAAAAAAAAAAAAAAAAAAAAAAAAAAAAAAAAAAAAAAAAAAAAAAAAAAAAAAAAAAAAAAAAAAAAAAAAAAAAAAAAAAAAAAAAAAAAAAAAAAAAAAAAAAAAAAAAAAAAAAAAAAAAAAAAAAAAAAAAAAAAAAAAAAAAAAAAAAAAAAAAAAAAAAAAAAAAAAAAAAAAAAAAAAAAAAAAAAAAAAAAAAAAAAAAAAAAAAAAAAAAAAAAAAAAAAAAAAAAAAAAAAAAAAAAAAAAAAAAAAAAAAAAAAAAAAAAAAAAAAAAAAAAAAAAAAAAAAAAAAAAAAAAAAAAAAAAAAAAAAAAAAAAAAAAAAAAAAAAAAAAAAAAAAAAAAAAAAAAAAAAAAAAAAAAAAAAAAAAAAAAAAAAAAAAAAAAAAAAAAAAAAAAAAAAAAAAAAAAAAAAAAAAAAAAAAAAAAAAAAAAAAAAAAAAAAAAAAAAAAAAAAAAAAAAAAAAAAAAAAAAAAAAAAAAAAAAAAAAAAAAAAAAAAAAAAAAAAAAAAAAAAAAAAAAAAAAAAAAAAAAAAAAAAAAAAAAAAAAAAAAAAAAAAAAAAAAAAAAAAAAAAAAAAAAAAAAAAAAAAAAAAAAAAAAAAAAAAAAAAAAAAAAAAAAAAAAAAAAAAAAAAAAAAAAAAAAAAAAAAAAAAAAAAAAAAAAAAAAAAAAAAAAAAAAAAAAAAAAAAAAAAAAAAAAAAAAAAAAAAAAAAAAAAAAAAAAAAAAAAAAAAAAAAAAAAAAAAAAAAAAAAAAAAAAAAAAAAAAAAAAAAAAAAAAAAAAAAAAAAAAAAAAAAAAAAAAAAAAAAAAAAAAAAAAAAAAAAAAAAAAAAAAAAAAAAAAAAAAAAAAAAAAAAAAAAAAAAAAAAAAAAAAAAAAAAAAAAAAAAAAAAAAAAAAAAAAAAAAAAAAAAAAAAAAAAAAAAAAAAAAAAAAAAAAAAAAAAAAAAAAAAAAAAAAAAAAAAAAAAAAAAAAAAAAAAAAAAAAAAAAAAAAAAAAAAAAAAAAAAAAAAAAAAAAAAAAAAAAAAAAAAAAAAAAAAAAAAAAAAAAAAAAAAAAAAAAAAAAAAAAAAAAAAAAAAAAAAAAAAAAAAAAAAAAAAAAAAAAAAAAAAAAAAAAAAAAAAAAAAAAAAAAAAAAAAAAAAAAAAAAAAAAAAAAAAAAAAAAAAAAAAAAAAAAAAAAAAAAAAAAAAAAAAAAAAAAAAAAAAAAAAAAAAAAAAAAAAAAAAAAAAAAAAAAAAAAAAAAAAAAAAAAAAAAAAAAAAAAAAAAAAAAAAAAAAAAAAAAAAAAAAAAAAAAAAAAAAAAAAAAAAAAAAAAAAAAAAAAAAAAAAAAAAAAAAAAAAAAAAAAAAAAAAAAAAAAAAAAAAAAAAAAAAAAAAAAAAAAAAAAAAAAAAAAAAAAAAAAAAAAAAAAAAAAAAAAAAAAAAAAAAAAAAAAAAAAAAAAAAAAAAAAAAAAAAAAAAAAAAAAAAAAAAAAAAAAAAAAAAAAAAAAAAAAAAAAAAAAAAAAAAAAAAAAAAAAAAAAAAAAAAAAAAAAAAAAAAAAAAAAAAAAAAAAAAAAAAAAAAAAAAAAAAAAAAAAAAAAAAAAAAAAAAAAAAAAAAAAAAAAAAAAAAAAAAAAAAAAAAAAAAAAAAAAAAAAAAAAAAAAAAAAAAAAAAAAAAAAAAAAAAAAAAAAAAAAAAAAAAAAAAAAAAAAAAAAAAAAAAAAAAAAAAAAAAAAAAAAAAAAAAAAAAAAAAAAAAAAAAAAAAAAAAAAAAAAAAAAAAAAAAAAAAAAAAAAAAAAAAAAAAAAAAAAAAAAAAAAAAAAAAAAAAAAAAAAAAAAAAAAAAAAAAAAAAAAAAAAAAAAAAAAAAAAAAAAAAAAAAAAAAAAAAAAAAAAAAAAAAAAAAAAAAAAAAAAAAAAAAAAAAAAAAAAAAAAAAAAAAAAAAAAAAAAAAAAAAAAAAAAAAAAAAAAAAAAAAAAAAAAAAAAAAAAAAAAAAAAAAAAAAAAAAAAAAAAAAAAAAAAAAAAAAAAAAAAAAAAAAAAAAAAAAAAAAAAAAAAAAAAAAAAAAAAAAAAAAAAAAAAAAAAAAAAAAAAAAAAAAAAAAAAAAAAAAAAAAAAAAAAAAAAAAAAAAAAAAAAAAAAAAAAAAAAAAAAAAAAAAAAAAAAAAAAAAAAAAAAAAAAAAAAAAAAAAAAAAAAAAAAAAAAAAAAAAAAAAAAAAAAAAAAAAAAAAAAAAAAAAPZYQKOxHT3WxyHSvrJ0B+27FSEGZgsLIC+oGhwvVAEShJtHvxQT/4PTKTYWZnLUzY14Przb7K+ZVb6visQrcOj8U2k=</c2pa:manifest></metadata>
<g transform="translate(36,50)" opacity="0.2"><g transform="translate(30,0)"><path d="M215 12 V47" fill="none" stroke="#4a3512" stroke-width="3" stroke-linecap="round"/><polygon points="138,50 168,50 168,250 153,308 138,250" fill="#4a3512"/><circle cx="215" cy="110" r="52" fill="none" stroke="#4a3512" stroke-width="22"/><circle cx="203" cy="100" r="6" fill="#4a3512"/><circle cx="227" cy="100" r="6" fill="#4a3512"/><circle cx="207" cy="122" r="3.5" fill="#4a3512"/><circle cx="223" cy="122" r="3.5" fill="#4a3512"/><g fill="none" stroke="#4a3512" stroke-width="9" stroke-linecap="round" stroke-linejoin="miter" stroke-miterlimit="10"><path d="M138 85 L100 50 L60 90 L50 130"/><path d="M138 120 L85 105 L45 150 L38 195"/><path d="M138 160 L80 165 L45 215 L45 255"/><path d="M138 205 L95 225 L70 275 L72 312"/><path d="M255 62 L290 25 L335 55 L350 95"/><path d="M278 110 L325 95 L360 125 L375 150"/><path d="M162 225 L210 255 L250 295 L255 335"/><path d="M156 262 L185 300 L200 345"/></g><g fill="none" stroke="#4a3512" stroke-width="14" stroke-linecap="butt" stroke-linejoin="miter" stroke-miterlimit="10"><path d="M338 185 L355 250 L375 205 L395 250 L412 185"/><path d="M434 218 H496 V198 L484 182 H446 L434 198 V232 L448 250 H496"/><path d="M523 130 V250 M523 182 H565 L581 198 V234 L565 250 H523"/></g></g></g>
<g transform="translate(21.0,28)"><g transform="translate(30,0)"><path d="M215 12 V47" fill="none" stroke="#7a5a22" stroke-width="3" stroke-linecap="round"/><polygon points="138,50 168,50 168,250 153,308 138,250" fill="#7a5a22"/><circle cx="215" cy="110" r="52" fill="none" stroke="#7a5a22" stroke-width="22"/><circle cx="203" cy="100" r="6" fill="#7a5a22"/><circle cx="227" cy="100" r="6" fill="#7a5a22"/><circle cx="207" cy="122" r="3.5" fill="#7a5a22"/><circle cx="223" cy="122" r="3.5" fill="#7a5a22"/><g fill="none" stroke="#7a5a22" stroke-width="9" stroke-linecap="round" stroke-linejoin="miter" stroke-miterlimit="10"><path d="M138 85 L100 50 L60 90 L50 130"/><path d="M138 120 L85 105 L45 150 L38 195"/><path d="M138 160 L80 165 L45 215 L45 255"/><path d="M138 205 L95 225 L70 275 L72 312"/><path d="M255 62 L290 25 L335 55 L350 95"/><path d="M278 110 L325 95 L360 125 L375 150"/><path d="M162 225 L210 255 L250 295 L255 335"/><path d="M156 262 L185 300 L200 345"/></g><g fill="none" stroke="#7a5a22" stroke-width="14" stroke-linecap="butt" stroke-linejoin="miter" stroke-miterlimit="10"><path d="M338 185 L355 250 L375 205 L395 250 L412 185"/><path d="M434 218 H496 V198 L484 182 H446 L434 198 V232 L448 250 H496"/><path d="M523 130 V250 M523 182 H565 L581 198 V234 L565 250 H523"/></g></g></g>
<g transform="translate(19.5,26)"><g transform="translate(30,0)"><path d="M215 12 V47" fill="none" stroke="#83642c" stroke-width="3" stroke-linecap="round"/><polygon points="138,50 168,50 168,250 153,308 138,250" fill="#83642c"/><circle cx="215" cy="110" r="52" fill="none" stroke="#83642c" stroke-width="22"/><circle cx="203" cy="100" r="6" fill="#83642c"/><circle cx="227" cy="100" r="6" fill="#83642c"/><circle cx="207" cy="122" r="3.5" fill="#83642c"/><circle cx="223" cy="122" r="3.5" fill="#83642c"/><g fill="none" stroke="#83642c" stroke-width="9" stroke-linecap="round" stroke-linejoin="miter" stroke-miterlimit="10"><path d="M138 85 L100 50 L60 90 L50 130"/><path d="M138 120 L85 105 L45 150 L38 195"/><path d="M138 160 L80 165 L45 215 L45 255"/><path d="M138 205 L95 225 L70 275 L72 312"/><path d="M255 62 L290 25 L335 55 L350 95"/><path d="M278 110 L325 95 L360 125 L375 150"/><path d="M162 225 L210 255 L250 295 L255 335"/><path d="M156 262 L185 300 L200 345"/></g><g fill="none" stroke="#83642c" stroke-width="14" stroke-linecap="butt" stroke-linejoin="miter" stroke-miterlimit="10"><path d="M338 185 L355 250 L375 205 L395 250 L412 185"/><path d="M434 218 H496 V198 L484 182 H446 L434 198 V232 L448 250 H496"/><path d="M523 130 V250 M523 182 H565 L581 198 V234 L565 250 H523"/></g></g></g>
<g transform="translate(18.0,24)"><g transform="translate(30,0)"><path d="M215 12 V47" fill="none" stroke="#8c6e37" stroke-width="3" stroke-linecap="round"/><polygon points="138,50 168,50 168,250 153,308 138,250" fill="#8c6e37"/><circle cx="215" cy="110" r="52" fill="none" stroke="#8c6e37" stroke-width="22"/><circle cx="203" cy="100" r="6" fill="#8c6e37"/><circle cx="227" cy="100" r="6" fill="#8c6e37"/><circle cx="207" cy="122" r="3.5" fill="#8c6e37"/><circle cx="223" cy="122" r="3.5" fill="#8c6e37"/><g fill="none" stroke="#8c6e37" stroke-width="9" stroke-linecap="round" stroke-linejoin="miter" stroke-miterlimit="10"><path d="M138 85 L100 50 L60 90 L50 130"/><path d="M138 120 L85 105 L45 150 L38 195"/><path d="M138 160 L80 165 L45 215 L45 255"/><path d="M138 205 L95 225 L70 275 L72 312"/><path d="M255 62 L290 25 L335 55 L350 95"/><path d="M278 110 L325 95 L360 125 L375 150"/><path d="M162 225 L210 255 L250 295 L255 335"/><path d="M156 262 L185 300 L200 345"/></g><g fill="none" stroke="#8c6e37" stroke-width="14" stroke-linecap="butt" stroke-linejoin="miter" stroke-miterlimit="10"><path d="M338 185 L355 250 L375 205 L395 250 L412 185"/><path d="M434 218 H496 V198 L484 182 H446 L434 198 V232 L448 250 H496"/><path d="M523 130 V250 M523 182 H565 L581 198 V234 L565 250 H523"/></g></g></g>
<g transform="translate(16.5,22)"><g transform="translate(30,0)"><path d="M215 12 V47" fill="none" stroke="#947741" stroke-width="3" stroke-linecap="round"/><polygon points="138,50 168,50 168,250 153,308 138,250" fill="#947741"/><circle cx="215" cy="110" r="52" fill="none" stroke="#947741" stroke-width="22"/><circle cx="203" cy="100" r="6" fill="#947741"/><circle cx="227" cy="100" r="6" fill="#947741"/><circle cx="207" cy="122" r="3.5" fill="#947741"/><circle cx="223" cy="122" r="3.5" fill="#947741"/><g fill="none" stroke="#947741" stroke-width="9" stroke-linecap="round" stroke-linejoin="miter" stroke-miterlimit="10"><path d="M138 85 L100 50 L60 90 L50 130"/><path d="M138 120 L85 105 L45 150 L38 195"/><path d="M138 160 L80 165 L45 215 L45 255"/><path d="M138 205 L95 225 L70 275 L72 312"/><path d="M255 62 L290 25 L335 55 L350 95"/><path d="M278 110 L325 95 L360 125 L375 150"/><path d="M162 225 L210 255 L250 295 L255 335"/><path d="M156 262 L185 300 L200 345"/></g><g fill="none" stroke="#947741" stroke-width="14" stroke-linecap="butt" stroke-linejoin="miter" stroke-miterlimit="10"><path d="M338 185 L355 250 L375 205 L395 250 L412 185"/><path d="M434 218 H496 V198 L484 182 H446 L434 198 V232 L448 250 H496"/><path d="M523 130 V250 M523 182 H565 L581 198 V234 L565 250 H523"/></g></g></g>
<g transform="translate(15.0,20)"><g transform="translate(30,0)"><path d="M215 12 V47" fill="none" stroke="#9d814b" stroke-width="3" stroke-linecap="round"/><polygon points="138,50 168,50 168,250 153,308 138,250" fill="#9d814b"/><circle cx="215" cy="110" r="52" fill="none" stroke="#9d814b" stroke-width="22"/><circle cx="203" cy="100" r="6" fill="#9d814b"/><circle cx="227" cy="100" r="6" fill="#9d814b"/><circle cx="207" cy="122" r="3.5" fill="#9d814b"/><circle cx="223" cy="122" r="3.5" fill="#9d814b"/><g fill="none" stroke="#9d814b" stroke-width="9" stroke-linecap="round" stroke-linejoin="miter" stroke-miterlimit="10"><path d="M138 85 L100 50 L60 90 L50 130"/><path d="M138 120 L85 105 L45 150 L38 195"/><path d="M138 160 L80 165 L45 215 L45 255"/><path d="M138 205 L95 225 L70 275 L72 312"/><path d="M255 62 L290 25 L335 55 L350 95"/><path d="M278 110 L325 95 L360 125 L375 150"/><path d="M162 225 L210 255 L250 295 L255 335"/><path d="M156 262 L185 300 L200 345"/></g><g fill="none" stroke="#9d814b" stroke-width="14" stroke-linecap="butt" stroke-linejoin="miter" stroke-miterlimit="10"><path d="M338 185 L355 250 L375 205 L395 250 L412 185"/><path d="M434 218 H496 V198 L484 182 H446 L434 198 V232 L448 250 H496"/><path d="M523 130 V250 M523 182 H565 L581 198 V234 L565 250 H523"/></g></g></g>
<g transform="translate(13.5,18)"><g transform="translate(30,0)"><path d="M215 12 V47" fill="none" stroke="#a68b56" stroke-width="3" stroke-linecap="round"/><polygon points="138,50 168,50 168,250 153,308 138,250" fill="#a68b56"/><circle cx="215" cy="110" r="52" fill="none" stroke="#a68b56" stroke-width="22"/><circle cx="203" cy="100" r="6" fill="#a68b56"/><circle cx="227" cy="100" r="6" fill="#a68b56"/><circle cx="207" cy="122" r="3.5" fill="#a68b56"/><circle cx="223" cy="122" r="3.5" fill="#a68b56"/><g fill="none" stroke="#a68b56" stroke-width="9" stroke-linecap="round" stroke-linejoin="miter" stroke-miterlimit="10"><path d="M138 85 L100 50 L60 90 L50 130"/><path d="M138 120 L85 105 L45 150 L38 195"/><path d="M138 160 L80 165 L45 215 L45 255"/><path d="M138 205 L95 225 L70 275 L72 312"/><path d="M255 62 L290 25 L335 55 L350 95"/><path d="M278 110 L325 95 L360 125 L375 150"/><path d="M162 225 L210 255 L250 295 L255 335"/><path d="M156 262 L185 300 L200 345"/></g><g fill="none" stroke="#a68b56" stroke-width="14" stroke-linecap="butt" stroke-linejoin="miter" stroke-miterlimit="10"><path d="M338 185 L355 250 L375 205 L395 250 L412 185"/><path d="M434 218 H496 V198 L484 182 H446 L434 198 V232 L448 250 H496"/><path d="M523 130 V250 M523 182 H565 L581 198 V234 L565 250 H523"/></g></g></g>
<g transform="translate(12.0,16)"><g transform="translate(30,0)"><path d="M215 12 V47" fill="none" stroke="#af9560" stroke-width="3" stroke-linecap="round"/><polygon points="138,50 168,50 168,250 153,308 138,250" fill="#af9560"/><circle cx="215" cy="110" r="52" fill="none" stroke="#af9560" stroke-width="22"/><circle cx="203" cy="100" r="6" fill="#af9560"/><circle cx="227" cy="100" r="6" fill="#af9560"/><circle cx="207" cy="122" r="3.5" fill="#af9560"/><circle cx="223" cy="122" r="3.5" fill="#af9560"/><g fill="none" stroke="#af9560" stroke-width="9" stroke-linecap="round" stroke-linejoin="miter" stroke-miterlimit="10"><path d="M138 85 L100 50 L60 90 L50 130"/><path d="M138 120 L85 105 L45 150 L38 195"/><path d="M138 160 L80 165 L45 215 L45 255"/><path d="M138 205 L95 225 L70 275 L72 312"/><path d="M255 62 L290 25 L335 55 L350 95"/><path d="M278 110 L325 95 L360 125 L375 150"/><path d="M162 225 L210 255 L250 295 L255 335"/><path d="M156 262 L185 300 L200 345"/></g><g fill="none" stroke="#af9560" stroke-width="14" stroke-linecap="butt" stroke-linejoin="miter" stroke-miterlimit="10"><path d="M338 185 L355 250 L375 205 L395 250 L412 185"/><path d="M434 218 H496 V198 L484 182 H446 L434 198 V232 L448 250 H496"/><path d="M523 130 V250 M523 182 H565 L581 198 V234 L565 250 H523"/></g></g></g>
<g transform="translate(10.5,14)"><g transform="translate(30,0)"><path d="M215 12 V47" fill="none" stroke="#b79e6a" stroke-width="3" stroke-linecap="round"/><polygon points="138,50 168,50 168,250 153,308 138,250" fill="#b79e6a"/><circle cx="215" cy="110" r="52" fill="none" stroke="#b79e6a" stroke-width="22"/><circle cx="203" cy="100" r="6" fill="#b79e6a"/><circle cx="227" cy="100" r="6" fill="#b79e6a"/><circle cx="207" cy="122" r="3.5" fill="#b79e6a"/><circle cx="223" cy="122" r="3.5" fill="#b79e6a"/><g fill="none" stroke="#b79e6a" stroke-width="9" stroke-linecap="round" stroke-linejoin="miter" stroke-miterlimit="10"><path d="M138 85 L100 50 L60 90 L50 130"/><path d="M138 120 L85 105 L45 150 L38 195"/><path d="M138 160 L80 165 L45 215 L45 255"/><path d="M138 205 L95 225 L70 275 L72 312"/><path d="M255 62 L290 25 L335 55 L350 95"/><path d="M278 110 L325 95 L360 125 L375 150"/><path d="M162 225 L210 255 L250 295 L255 335"/><path d="M156 262 L185 300 L200 345"/></g><g fill="none" stroke="#b79e6a" stroke-width="14" stroke-linecap="butt" stroke-linejoin="miter" stroke-miterlimit="10"><path d="M338 185 L355 250 L375 205 L395 250 L412 185"/><path d="M434 218 H496 V198 L484 182 H446 L434 198 V232 L448 250 H496"/><path d="M523 130 V250 M523 182 H565 L581 198 V234 L565 250 H523"/></g></g></g>
<g transform="translate(9.0,12)"><g transform="translate(30,0)"><path d="M215 12 V47" fill="none" stroke="#c0a874" stroke-width="3" stroke-linecap="round"/><polygon points="138,50 168,50 168,250 153,308 138,250" fill="#c0a874"/><circle cx="215" cy="110" r="52" fill="none" stroke="#c0a874" stroke-width="22"/><circle cx="203" cy="100" r="6" fill="#c0a874"/><circle cx="227" cy="100" r="6" fill="#c0a874"/><circle cx="207" cy="122" r="3.5" fill="#c0a874"/><circle cx="223" cy="122" r="3.5" fill="#c0a874"/><g fill="none" stroke="#c0a874" stroke-width="9" stroke-linecap="round" stroke-linejoin="miter" stroke-miterlimit="10"><path d="M138 85 L100 50 L60 90 L50 130"/><path d="M138 120 L85 105 L45 150 L38 195"/><path d="M138 160 L80 165 L45 215 L45 255"/><path d="M138 205 L95 225 L70 275 L72 312"/><path d="M255 62 L290 25 L335 55 L350 95"/><path d="M278 110 L325 95 L360 125 L375 150"/><path d="M162 225 L210 255 L250 295 L255 335"/><path d="M156 262 L185 300 L200 345"/></g><g fill="none" stroke="#c0a874" stroke-width="14" stroke-linecap="butt" stroke-linejoin="miter" stroke-miterlimit="10"><path d="M338 185 L355 250 L375 205 L395 250 L412 185"/><path d="M434 218 H496 V198 L484 182 H446 L434 198 V232 L448 250 H496"/><path d="M523 130 V250 M523 182 H565 L581 198 V234 L565 250 H523"/></g></g></g>
<g transform="translate(7.5,10)"><g transform="translate(30,0)"><path d="M215 12 V47" fill="none" stroke="#c9b27f" stroke-width="3" stroke-linecap="round"/><polygon points="138,50 168,50 168,250 153,308 138,250" fill="#c9b27f"/><circle cx="215" cy="110" r="52" fill="none" stroke="#c9b27f" stroke-width="22"/><circle cx="203" cy="100" r="6" fill="#c9b27f"/><circle cx="227" cy="100" r="6" fill="#c9b27f"/><circle cx="207" cy="122" r="3.5" fill="#c9b27f"/><circle cx="223" cy="122" r="3.5" fill="#c9b27f"/><g fill="none" stroke="#c9b27f" stroke-width="9" stroke-linecap="round" stroke-linejoin="miter" stroke-miterlimit="10"><path d="M138 85 L100 50 L60 90 L50 130"/><path d="M138 120 L85 105 L45 150 L38 195"/><path d="M138 160 L80 165 L45 215 L45 255"/><path d="M138 205 L95 225 L70 275 L72 312"/><path d="M255 62 L290 25 L335 55 L350 95"/><path d="M278 110 L325 95 L360 125 L375 150"/><path d="M162 225 L210 255 L250 295 L255 335"/><path d="M156 262 L185 300 L200 345"/></g><g fill="none" stroke="#c9b27f" stroke-width="14" stroke-linecap="butt" stroke-linejoin="miter" stroke-miterlimit="10"><path d="M338 185 L355 250 L375 205 L395 250 L412 185"/><path d="M434 218 H496 V198 L484 182 H446 L434 198 V232 L448 250 H496"/><path d="M523 130 V250 M523 182 H565 L581 198 V234 L565 250 H523"/></g></g></g>
<g transform="translate(6.0,8)"><g transform="translate(30,0)"><path d="M215 12 V47" fill="none" stroke="#d2bc89" stroke-width="3" stroke-linecap="round"/><polygon points="138,50 168,50 168,250 153,308 138,250" fill="#d2bc89"/><circle cx="215" cy="110" r="52" fill="none" stroke="#d2bc89" stroke-width="22"/><circle cx="203" cy="100" r="6" fill="#d2bc89"/><circle cx="227" cy="100" r="6" fill="#d2bc89"/><circle cx="207" cy="122" r="3.5" fill="#d2bc89"/><circle cx="223" cy="122" r="3.5" fill="#d2bc89"/><g fill="none" stroke="#d2bc89" stroke-width="9" stroke-linecap="round" stroke-linejoin="miter" stroke-miterlimit="10"><path d="M138 85 L100 50 L60 90 L50 130"/><path d="M138 120 L85 105 L45 150 L38 195"/><path d="M138 160 L80 165 L45 215 L45 255"/><path d="M138 205 L95 225 L70 275 L72 312"/><path d="M255 62 L290 25 L335 55 L350 95"/><path d="M278 110 L325 95 L360 125 L375 150"/><path d="M162 225 L210 255 L250 295 L255 335"/><path d="M156 262 L185 300 L200 345"/></g><g fill="none" stroke="#d2bc89" stroke-width="14" stroke-linecap="butt" stroke-linejoin="miter" stroke-miterlimit="10"><path d="M338 185 L355 250 L375 205 L395 250 L412 185"/><path d="M434 218 H496 V198 L484 182 H446 L434 198 V232 L448 250 H496"/><path d="M523 130 V250 M523 182 H565 L581 198 V234 L565 250 H523"/></g></g></g>
<g transform="translate(4.5,6)"><g transform="translate(30,0)"><path d="M215 12 V47" fill="none" stroke="#dac593" stroke-width="3" stroke-linecap="round"/><polygon points="138,50 168,50 168,250 153,308 138,250" fill="#dac593"/><circle cx="215" cy="110" r="52" fill="none" stroke="#dac593" stroke-width="22"/><circle cx="203" cy="100" r="6" fill="#dac593"/><circle cx="227" cy="100" r="6" fill="#dac593"/><circle cx="207" cy="122" r="3.5" fill="#dac593"/><circle cx="223" cy="122" r="3.5" fill="#dac593"/><g fill="none" stroke="#dac593" stroke-width="9" stroke-linecap="round" stroke-linejoin="miter" stroke-miterlimit="10"><path d="M138 85 L100 50 L60 90 L50 130"/><path d="M138 120 L85 105 L45 150 L38 195"/><path d="M138 160 L80 165 L45 215 L45 255"/><path d="M138 205 L95 225 L70 275 L72 312"/><path d="M255 62 L290 25 L335 55 L350 95"/><path d="M278 110 L325 95 L360 125 L375 150"/><path d="M162 225 L210 255 L250 295 L255 335"/><path d="M156 262 L185 300 L200 345"/></g><g fill="none" stroke="#dac593" stroke-width="14" stroke-linecap="butt" stroke-linejoin="miter" stroke-miterlimit="10"><path d="M338 185 L355 250 L375 205 L395 250 L412 185"/><path d="M434 218 H496 V198 L484 182 H446 L434 198 V232 L448 250 H496"/><path d="M523 130 V250 M523 182 H565 L581 198 V234 L565 250 H523"/></g></g></g>
<g transform="translate(3.0,4)"><g transform="translate(30,0)"><path d="M215 12 V47" fill="none" stroke="#e3cf9e" stroke-width="3" stroke-linecap="round"/><polygon points="138,50 168,50 168,250 153,308 138,250" fill="#e3cf9e"/><circle cx="215" cy="110" r="52" fill="none" stroke="#e3cf9e" stroke-width="22"/><circle cx="203" cy="100" r="6" fill="#e3cf9e"/><circle cx="227" cy="100" r="6" fill="#e3cf9e"/><circle cx="207" cy="122" r="3.5" fill="#e3cf9e"/><circle cx="223" cy="122" r="3.5" fill="#e3cf9e"/><g fill="none" stroke="#e3cf9e" stroke-width="9" stroke-linecap="round" stroke-linejoin="miter" stroke-miterlimit="10"><path d="M138 85 L100 50 L60 90 L50 130"/><path d="M138 120 L85 105 L45 150 L38 195"/><path d="M138 160 L80 165 L45 215 L45 255"/><path d="M138 205 L95 225 L70 275 L72 312"/><path d="M255 62 L290 25 L335 55 L350 95"/><path d="M278 110 L325 95 L360 125 L375 150"/><path d="M162 225 L210 255 L250 295 L255 335"/><path d="M156 262 L185 300 L200 345"/></g><g fill="none" stroke="#e3cf9e" stroke-width="14" stroke-linecap="butt" stroke-linejoin="miter" stroke-miterlimit="10"><path d="M338 185 L355 250 L375 205 L395 250 L412 185"/><path d="M434 218 H496 V198 L484 182 H446 L434 198 V232 L448 250 H496"/><path d="M523 130 V250 M523 182 H565 L581 198 V234 L565 250 H523"/></g></g></g>
<g transform="translate(1.5,2)"><g transform="translate(30,0)"><path d="M215 12 V47" fill="none" stroke="#ecd9a8" stroke-width="3" stroke-linecap="round"/><polygon points="138,50 168,50 168,250 153,308 138,250" fill="#ecd9a8"/><circle cx="215" cy="110" r="52" fill="none" stroke="#ecd9a8" stroke-width="22"/><circle cx="203" cy="100" r="6" fill="#ecd9a8"/><circle cx="227" cy="100" r="6" fill="#ecd9a8"/><circle cx="207" cy="122" r="3.5" fill="#ecd9a8"/><circle cx="223" cy="122" r="3.5" fill="#ecd9a8"/><g fill="none" stroke="#ecd9a8" stroke-width="9" stroke-linecap="round" stroke-linejoin="miter" stroke-miterlimit="10"><path d="M138 85 L100 50 L60 90 L50 130"/><path d="M138 120 L85 105 L45 150 L38 195"/><path d="M138 160 L80 165 L45 215 L45 255"/><path d="M138 205 L95 225 L70 275 L72 312"/><path d="M255 62 L290 25 L335 55 L350 95"/><path d="M278 110 L325 95 L360 125 L375 150"/><path d="M162 225 L210 255 L250 295 L255 335"/><path d="M156 262 L185 300 L200 345"/></g><g fill="none" stroke="#ecd9a8" stroke-width="14" stroke-linecap="butt" stroke-linejoin="miter" stroke-miterlimit="10"><path d="M338 185 L355 250 L375 205 L395 250 L412 185"/><path d="M434 218 H496 V198 L484 182 H446 L434 198 V232 L448 250 H496"/><path d="M523 130 V250 M523 182 H565 L581 198 V234 L565 250 H523"/></g></g></g>
<g transform="translate(30,0)"><path d="M215 12 V47" fill="none" stroke="#fffaf0" stroke-width="3" stroke-linecap="round"/><polygon points="138,50 168,50 168,250 153,308 138,250" fill="#fffaf0"/><circle cx="215" cy="110" r="52" fill="none" stroke="#fffaf0" stroke-width="22"/><circle cx="203" cy="100" r="6" fill="#fffaf0"/><circle cx="227" cy="100" r="6" fill="#fffaf0"/><circle cx="207" cy="122" r="3.5" fill="#fffaf0"/><circle cx="223" cy="122" r="3.5" fill="#fffaf0"/><g fill="none" stroke="#fffaf0" stroke-width="9" stroke-linecap="round" stroke-linejoin="miter" stroke-miterlimit="10"><path d="M138 85 L100 50 L60 90 L50 130"/><path d="M138 120 L85 105 L45 150 L38 195"/><path d="M138 160 L80 165 L45 215 L45 255"/><path d="M138 205 L95 225 L70 275 L72 312"/><path d="M255 62 L290 25 L335 55 L350 95"/><path d="M278 110 L325 95 L360 125 L375 150"/><path d="M162 225 L210 255 L250 295 L255 335"/><path d="M156 262 L185 300 L200 345"/></g><g fill="none" stroke="#fffaf0" stroke-width="14" stroke-linecap="butt" stroke-linejoin="miter" stroke-miterlimit="10"><path d="M338 185 L355 250 L375 205 L395 250 L412 185"/><path d="M434 218 H496 V198 L484 182 H446 L434 198 V232 L448 250 H496"/><path d="M523 130 V250 M523 182 H565 L581 198 V234 L565 250 H523"/></g></g>
</svg>