<svg xmlns="http://www.w3.org/2000/svg" width="1360" height="800" viewBox="0 0 680 400" xmlns:c2pa="http://c2pa.org/manifest"><metadata><c2pa:manifest>AAAWgmp1bWIAAAAeanVtZGMycGEAEQAQgAAAqgA4m3EDYzJwYQAAABZcanVtYgAAAEdqdW1kYzJtYQARABCAAACqADibcQN1cm46YzJwYTo4YmYwOTg5MS0wNGI0LTRiYjQtODE2NS1mOWMyZjYzMjE2NDMAAAADl2p1bWIAAAApanVtZGMyYXMAEQAQgAAAqgA4m3EDYzJwYS5hc3NlcnRpb25zAAAAALxqdW1iAAAARGp1bWRjYm9yABEAEIAAAKoAOJtxE2MycGEuaW5ncmVkaWVudC52MwAAAAAYYzJzaGNvO8m0PP21LIhYfBH05aEAAABwY2JvcqNpZGM6Zm9ybWF0bWltYWdlL3N2Zyt4bWxqaW5zdGFuY2VJRHgseG1wOmlpZDo1YWExNjg4My0zZjY3LTRiZTMtYTlkMi0zODM0NmE2NTJiNDRscmVsYXRpb25zaGlwaHBhcmVudE9mAAAB4mp1bWIAAABBanVtZGNib3IAEQAQgAAAqgA4m3ETYzJwYS5hY3Rpb25zLnYyAAAAABhjMnNo6OWoYB0yun+zQuvVt4m60QAAAZljYm9yomdhY3Rpb25zgqJmYWN0aW9ua2MycGEub3BlbmVkanBhcmFtZXRlcnOha2luZ3JlZGllbnRzgaJjdXJseC1zZWxmI2p1bWJmPWMycGEuYXNzZXJ0aW9ucy9jMnBhLmluZ3JlZGllbnQudjNkaGFzaFggiF3TYwBeg/b7O8kGLd9sNgREPfitOmU7XkGTpokxCv6kZmFjdGlvbngdY29tLmFudGhyb3BpYy5jbGF1ZGUucHJvdmlkZWRqcGFyYW1ldGVyc6F4H2NvbS5hbnRocm9waWMub3JpZ2luLWNvbmZpZGVuY2VndW5rbm93bmtkZXNjcmlwdGlvbnhmQ2xhdWRlIHByb3ZpZGVkIHRoaXMgZmlsZSBhdCB0aGUgcmVxdWVzdCBvZiBhIHVzZXIgYW5kIG1heSBoYXZlIGNyZWF0ZWQgb3IgbW9kaWZpZWQgdGhlIGZpbGUgY29udGVudHMubXNvZnR3YXJlQWdlbnShZG5hbWVmQ2xhdWRlcmFsbEFjdGlvbnNJbmNsdWRlZPUAAADIanVtYgAAAEBqdW1kY2JvcgARABCAAACqADibcRNjMnBhLmhhc2guZGF0YQAAAAAYYzJzaCS8B6WUEj4yfU+t0tjPs1EAAACAY2JvcqVjYWxnZnNoYTI1NmNwYWRNAAAAAAAAAAAAAAAAAGRoYXNoWCDiru9lew5bwCEdSuC+fyJOUoSyopnl9q5pJs87Hv2ttGRuYW1lbmp1bWJmIG1hbmlmZXN0amV4Y2x1c2lvbnOBomVzdGFydBiXZmxlbmd0aBkeBAAAAj5qdW1iAAAAJ2p1bWRjMmNsABEAEIAAAKoAOJtxA2MycGEuY2xhaW0udjIAAAACD2Nib3KlY2FsZ2ZzaGEyNTZpc2lnbmF0dXJleE1zZWxmI2p1bWJmPS9jMnBhL3VybjpjMnBhOjhiZjA5ODkxLTA0YjQtNGJiNC04MTY1LWY5YzJmNjMyMTY0My9jMnBhLnNpZ25hdHVyZWppbnN0YW5jZUlEeCx4bXA6aWlkOmJiYTFmNjUxLTI4YjYtNDZhYS05ZGQ3LWYxMTQ4MTZlM2RiNHJjcmVhdGVkX2Fzc2VydGlvbnODomN1cmx4LXNlbGYjanVtYmY9YzJwYS5hc3NlcnRpb25zL2MycGEuaW5ncmVkaWVudC52M2RoYXNoWCCIXdNjAF6D9vs7yQYt32w2BEQ9+K06ZTteQZOmiTEK/qJjdXJseCpzZWxmI2p1bWJmPWMycGEuYXNzZXJ0aW9ucy9jMnBhLmFjdGlvbnMudjJkaGFzaFggSL81k4QgXa86ndd9XgsyX7CowujuUVpVQ517k0SZzNuiY3VybHgpc2VsZiNqdW1iZj1jMnBhLmFzc2VydGlvbnMvYzJwYS5oYXNoLmRhdGFkaGFzaFggb587ehQw8CS1OZNrCTpHvd6AP8gqBIpmkHbM8VJjz4h0Y2xhaW1fZ2VuZXJhdG9yX2luZm+jZG5hbWVvQW50aHJvcGljIEZpbGVzZ3ZlcnNpb25lMS4wLjBrc3BlY1ZlcnNpb25lMi40LjAAABA4anVtYgAAAChqdW1kYzJjcwARABCAAACqADibcQNjMnBhLnNpZ25hdHVyZQAAABAIY2JvctKEWQISogEmGCFZAgowggIGMIIBjaADAgECAhRA5aAK7sI50L64g/oGQgU9Z1UTADAKBggqhkjOPQQDAzBJMRcwFQYDVQQKEw5BbnRocm9waWMsIFBCQzEuMCwGA1UEAxMlQW50aHJvcGljIENvbnRlbnQgQ3JlZGVudGlhbHMgUm9vdCBDQTAeFw0yNjA4MDcxODQzNTZaFw0yODA4MDYxOTQzNTZaMEQxFzAVBgNVBAoTDkFudGhyb3BpYywgUEJDMSkwJwYDVQQDEyBBbnRocm9waWMgQ2xhdWRlIENvbnRlbnQgU2lnbmluZzBZMBMGByqGSM49AgEGCCqGSM49AwEHA0IABJh6CmvLUBgFFNU0vUKlOVtE6djd17L5SuwX0LemFisBM3dkd/3cyjxFA3Qo5S46fX0/ihY0VZ7mfb9KF703t5OjWDBWMA4GA1UdDwEB/wQEAwIHgDAVBgNVHSUEDjAMBgorBgEEAYPoXgIBMAwGA1UdEwEB/wQCMAAwHwYDVR0jBBgwFoAUzlHiBIFOZFsj+OPEz5o+nMHXXMIwCgYIKoZIzj0EAwMDZwAwZAIwMXMdFJ4BetLLVY7ORuE9noqbbAZOZn/aArXyTwFAZfKrPzxF2vPoJNf1+UCdg1XGAjBwX1zd9WGqYkqmL5SFqw1QySjr1zJfpJM9+1rdDwSPLMOPOjKuiXjoU/pUUeG9RwmhY3BhZFkNngAAAAAAAAAAAAAAAAAAAAAAAAAAAAAAAAAAAAAAAAAAAAAAAAAAAAAAAAAAAAAAAAAAAAAAAAAAAAAAAAAAAAAAAAAAAAAAAAAAAAAAAAAAAAAAAAAAAAAAAAAAAAAAAAAAAAAAAAAAAAAAAAAAAAAAAAAAAAAAAAAAAAAAAAAAAAAAAAAAAAAAAAAAAAAAAAAAAAAAAAAAAAAAAAAAAAAAAAAAAAAAAAAAAAAAAAAAAAAAAAAAAAAAAAAAAAAAAAAAAAAAAAAAAAAAAAAAAAAAAAAAAAAAAAAAAAAAAAAAAAAAAAAAAAAAAAAAAAAAAAAAAAAAAAAAAAAAAAAAAAAAAAAAAAAAAAAAAAAAAAAAAAAAAAAAAAAAAAAAAAAAAAAAAAAAAAAAAAAAAAAAAAAAAAAAAAAAAAAAAAAAAAAAAAAAAAAAAAAAAAAAAAAAAAAAAAAAAAAAAAAAAAAAAAAAAAAAAAAAAAAAAAAAAAAAAAAAAAAAAAAAAAAAAAAAAAAAAAAAAAAAAAAAAAAAAAAAAAAAAAAAAAAAAAAAAAAAAAAAAAAAAAAAAAAAAAAAAAAAAAAAAAAAAAAAAAAAAAAAAAAAAAAAAAAAAAAAAAAAAAAAAAAAAAAAAAAAAAAAAAAAAAAAAAAAAAAAAAAAAAAAAAAAAAAAAAAAAAAAAAAAAAAAAAAAAAAAAAAAAAAAAAAAAAAAAAAAAAAAAAAAAAAAAAAAAAAAAAAAAAAAAAAAAAAAAAAAAAAAAAAAAAAAAAAAAAAAAAAAAAAAAAAAAAAAAAAAAAAAAAAAAAAAAAAAAAAAAAAAAAAAAAAAAAAAAAAAAAAAAAAAAAAAAAAAAAAAAAAAAAAAAAAAAAAAAAAAAAAAAAAAAAAAAAAAAAAAAAAAAAAAAAAAAAAAAAAAAAAAAAAAAAAAAAAAAAAAAAAAAAAAAAAAAAAAAAAAAAAAAAAAAAAAAAAAAAAAAAAAAAAAAAAAAAAAAAAAAAAAAAAAAAAAAAAAAAAAAAAAAAAAAAAAAAAAAAAAAAAAAAAAAAAAAAAAAAAAAAAAAAAAAAAAAAAAAAAAAAAAAAAAAAAAAAAAAAAAAAAAAAAAAAAAAAAAAAAAAAAAAAAAAAAAAAAAAAAAAAAAAAAAAAAAAAAAAAAAAAAAAAAAAAAAAAAAAAAAAAAAAAAAAAAAAAAAAAAAAAAAAAAAAAAAAAAAAAAAAAAAAAAAAAAAAAAAAAAAAAAAAAAAAAAAAAAAAAAAAAAAAAAAAAAAAAAAAAAAAAAAAAAAAAAAAAAAAAAAAAAAAAAAAAAAAAAAAAAAAAAAAAAAAAAAAAAAAAAAAAAAAAAAAAAAAAAAAAAAAAAAAAAAAAAAAAAAAAAAAAAAAAAAAAAAAAAAAAAAAAAAAAAAAAAAAAAAAAAAAAAAAAAAAAAAAAAAAAAAAAAAAAAAAAAAAAAAAAAAAAAAAAAAAAAAAAAAAAAAAAAAAAAAAAAAAAAAAAAAAAAAAAAAAAAAAAAAAAAAAAAAAAAAAAAAAAAAAAAAAAAAAAAAAAAAAAAAAAAAAAAAAAAAAAAAAAAAAAAAAAAAAAAAAAAAAAAAAAAAAAAAAAAAAAAAAAAAAAAAAAAAAAAAAAAAAAAAAAAAAAAAAAAAAAAAAAAAAAAAAAAAAAAAAAAAAAAAAAAAAAAAAAAAAAAAAAAAAAAAAAAAAAAAAAAAAAAAAAAAAAAAAAAAAAAAAAAAAAAAAAAAAAAAAAAAAAAAAAAAAAAAAAAAAAAAAAAAAAAAAAAAAAAAAAAAAAAAAAAAAAAAAAAAAAAAAAAAAAAAAAAAAAAAAAAAAAAAAAAAAAAAAAAAAAAAAAAAAAAAAAAAAAAAAAAAAAAAAAAAAAAAAAAAAAAAAAAAAAAAAAAAAAAAAAAAAAAAAAAAAAAAAAAAAAAAAAAAAAAAAAAAAAAAAAAAAAAAAAAAAAAAAAAAAAAAAAAAAAAAAAAAAAAAAAAAAAAAAAAAAAAAAAAAAAAAAAAAAAAAAAAAAAAAAAAAAAAAAAAAAAAAAAAAAAAAAAAAAAAAAAAAAAAAAAAAAAAAAAAAAAAAAAAAAAAAAAAAAAAAAAAAAAAAAAAAAAAAAAAAAAAAAAAAAAAAAAAAAAAAAAAAAAAAAAAAAAAAAAAAAAAAAAAAAAAAAAAAAAAAAAAAAAAAAAAAAAAAAAAAAAAAAAAAAAAAAAAAAAAAAAAAAAAAAAAAAAAAAAAAAAAAAAAAAAAAAAAAAAAAAAAAAAAAAAAAAAAAAAAAAAAAAAAAAAAAAAAAAAAAAAAAAAAAAAAAAAAAAAAAAAAAAAAAAAAAAAAAAAAAAAAAAAAAAAAAAAAAAAAAAAAAAAAAAAAAAAAAAAAAAAAAAAAAAAAAAAAAAAAAAAAAAAAAAAAAAAAAAAAAAAAAAAAAAAAAAAAAAAAAAAAAAAAAAAAAAAAAAAAAAAAAAAAAAAAAAAAAAAAAAAAAAAAAAAAAAAAAAAAAAAAAAAAAAAAAAAAAAAAAAAAAAAAAAAAAAAAAAAAAAAAAAAAAAAAAAAAAAAAAAAAAAAAAAAAAAAAAAAAAAAAAAAAAAAAAAAAAAAAAAAAAAAAAAAAAAAAAAAAAAAAAAAAAAAAAAAAAAAAAAAAAAAAAAAAAAAAAAAAAAAAAAAAAAAAAAAAAAAAAAAAAAAAAAAAAAAAAAAAAAAAAAAAAAAAAAAAAAAAAAAAAAAAAAAAAAAAAAAAAAAAAAAAAAAAAAAAAAAAAAAAAAAAAAAAAAAAAAAAAAAAAAAAAAAAAAAAAAAAAAAAAAAAAAAAAAAAAAAAAAAAAAAAAAAAAAAAAAAAAAAAAAAAAAAAAAAAAAAAAAAAAAAAAAAAAAAAAAAAAAAAAAAAAAAAAAAAAAAAAAAAAAAAAAAAAAAAAAAAAAAAAAAAAAAAAAAAAAAAAAAAAAAAAAAAAAAAAAAAAAAAAAAAAAAAAAAAAAAAAAAAAAAAAAAAAAAAAAAAAAAAAAAAAAAAAAAAAAAAAAAAAAAAAAAAAAAAAAAAAAAAAAAAAAAAAAAAAAAAAAAAAAAAAAAAAAAAAAAAAAAAAAAAAAAAAAAAAAAAAAAAAAAAAAAAAAAAAAAAAAAAAAAAAAAAAAAAAAAAAAAAAAAAAAAAAAAAAAAAAAAAAAAAAAAAAAAAAAAAAAAAAAAAAAAAAAAAAAAAAAAAAAAAAAAAAAAAAAAAAAAAAAAAAAAAAAAAAAAAAAAAAAAAAAAAAAAAAAAAAAAAAAAAAAAAAAAAAAAAAAAAAAAAAAAAAAAAAAAAAAAAAAAAAAAAAAAAAAAAAAAAAAAAAAAAAAAAAAAAAAAAAAAAAAAAAAAAAAAAAAAAAAAAAAAAAAAAAAAAAAAAAAAAAAAAAAAAAAAAAAAAAAAAAAAAAAAAAAAAAAAAAAAAAAAAAAAAAAAAAAAAAAAAAAAAAAAAAAAAAAAAAAAAAAAAAAAAAAAAAAAAAAAAAAAAAAAAAAAAAAAAAAAAAAAAAAAAAAAAAAAAAAAAAAAAAAAAAAAAAAAAAAAAAAAAAAAAAAAAAAAAAAAAAAAAAAAAAAAAAAAAAAAAAAAAAAAAAAAAAAAAAAAAAAAAAAAAAAAAAAAAAAAAAAAAAAAAAAAAAAAAAAAAAAAAAAAAAAAAAAAAAAAAAAAAAAAAAAAAAAAAAAAAAAAAAAAAAAAAAAAAAAAAAAAAAAAAAAAAAAAAAAAAAAAAAAAAAAAAAAAAAAAAAAAAAAAAAAAAAAAAAAAAAAAAAAAAAAAAAAAAAAAAAAAAAAAAAAAAAAAAAAAAAAAAAAAAAAAAAAAAAAAAAAAAAAAAAAAAAAAAAAAAAAAAAAAAAAAAAAAAAAAAAAAAAAAAAAAAAAAAAAAAAAAAAAAAAAAAAAAAAAAAAAAAAAAAAAAAAAAAAAAAAAAAAAAAAAAAAAAAAAAAAAAAAAAAAAAAAAAAAAAAAAAAAAAAAAAAAAAAAAAAAAAAAAAAAAAAAAAAAAAAAAAAAAAAAAAAAAAAAAAAAAAAAAAAAAAAAAAAAAAAAAAAAAAAAAAAAAAAAAAAAAAAAAAAAAAAAAAAAAAAAAAAAAAAAAAAAAAAAAAAAAAAAAAAAAAAAAAAAAAAAAAAAAAAAAAAAAAAAAAAAAAAAAAAAAAAAAAAAAAAAAAAAAAAAAAAAAAAAAAAAAAAAAAAAAAAAAAAAAAAAAAAAAAAAAAAAAAAAAAAAAAAAAAAAAAAAAAAAAAAAAAAAAAAAAAAAAAAAAAAAAAAAAAAAAAAAAAAAAAAAAAAAAAAAAAAAAAAAAAAAAAAAAAAAAAAAAAAAAAAAAAAAAAAAAAAAAAAAAAAAAAAAAAAAAAAAAAAAAAAAAAAAAAAAAAAAAAAAAAAAAAAAAAAAAAAAAAAAAAAAAAAAAAAAAAAAAAAAAAAAAAAAAAAAAAAAAAAAAAAAAAAAAAAAAAAAAAAAAAAAAAAAAAAAAAAAAAAAAAAAAAAAAAAAAAAAAAAAAAAAAAAAAAAAAAAAAAAAAAAAAAAAAAAAAAAAAAAAAAAAAAAAAAAAAAAAAAAAAAAAAAAAAAAAAAAAAAAAAAAAAAAAAAAAAAAAAAAAAAAAAAAAAAAAAAAAAAAAAAAAAAAAAAAAAAAAAAAAAAAAAAAAAPZYQPvmY3gnWWRvlCU2sAblb/fYqzvhljNHUaXyhr32cfxILXrKxqLDZXSaujcfFB3g6QSBpTYfa4Xa2xgEDGtIGCo=</c2pa:manifest></metadata><rect width="680" height="400" fill="#bccfb0"/>
<g transform="translate(36,50)" opacity="0.2"><g transform="translate(30,0)"><path d="M215 12 V47" fill="none" stroke="#3a4a2d" stroke-width="3" stroke-linecap="round"/><polygon points="138,50 168,50 168,250 153,308 138,250" fill="#3a4a2d"/><circle cx="215" cy="110" r="52" fill="none" stroke="#3a4a2d" stroke-width="22"/><circle cx="203" cy="100" r="6" fill="#3a4a2d"/><circle cx="227" cy="100" r="6" fill="#3a4a2d"/><circle cx="207" cy="122" r="3.5" fill="#3a4a2d"/><circle cx="223" cy="122" r="3.5" fill="#3a4a2d"/><g fill="none" stroke="#3a4a2d" stroke-width="9" stroke-linecap="round" stroke-linejoin="miter" stroke-miterlimit="10"><path d="M138 85 L100 50 L60 90 L50 130"/><path d="M138 120 L85 105 L45 150 L38 195"/><path d="M138 160 L80 165 L45 215 L45 255"/><path d="M138 205 L95 225 L70 275 L72 312"/><path d="M255 62 L290 25 L335 55 L350 95"/><path d="M278 110 L325 95 L360 125 L375 150"/><path d="M162 225 L210 255 L250 295 L255 335"/><path d="M156 262 L185 300 L200 345"/></g><g fill="none" stroke="#3a4a2d" stroke-width="14" stroke-linecap="butt" stroke-linejoin="miter" stroke-miterlimit="10"><path d="M338 185 L355 250 L375 205 L395 250 L412 185"/><path d="M434 218 H496 V198 L484 182 H446 L434 198 V232 L448 250 H496"/><path d="M523 130 V250 M523 182 H565 L581 198 V234 L565 250 H523"/></g></g></g>
<g transform="translate(21.0,28)"><g transform="translate(30,0)"><path d="M215 12 V47" fill="none" stroke="#566b45" stroke-width="3" stroke-linecap="round"/><polygon points="138,50 168,50 168,250 153,308 138,250" fill="#566b45"/><circle cx="215" cy="110" r="52" fill="none" stroke="#566b45" stroke-width="22"/><circle cx="203" cy="100" r="6" fill="#566b45"/><circle cx="227" cy="100" r="6" fill="#566b45"/><circle cx="207" cy="122" r="3.5" fill="#566b45"/><circle cx="223" cy="122" r="3.5" fill="#566b45"/><g fill="none" stroke="#566b45" stroke-width="9" stroke-linecap="round" stroke-linejoin="miter" stroke-miterlimit="10"><path d="M138 85 L100 50 L60 90 L50 130"/><path d="M138 120 L85 105 L45 150 L38 195"/><path d="M138 160 L80 165 L45 215 L45 255"/><path d="M138 205 L95 225 L70 275 L72 312"/><path d="M255 62 L290 25 L335 55 L350 95"/><path d="M278 110 L325 95 L360 125 L375 150"/><path d="M162 225 L210 255 L250 295 L255 335"/><path d="M156 262 L185 300 L200 345"/></g><g fill="none" stroke="#566b45" stroke-width="14" stroke-linecap="butt" stroke-linejoin="miter" stroke-miterlimit="10"><path d="M338 185 L355 250 L375 205 L395 250 L412 185"/><path d="M434 218 H496 V198 L484 182 H446 L434 198 V232 L448 250 H496"/><path d="M523 130 V250 M523 182 H565 L581 198 V234 L565 250 H523"/></g></g></g>
<g transform="translate(19.5,26)"><g transform="translate(30,0)"><path d="M215 12 V47" fill="none" stroke="#5f744f" stroke-width="3" stroke-linecap="round"/><polygon points="138,50 168,50 168,250 153,308 138,250" fill="#5f744f"/><circle cx="215" cy="110" r="52" fill="none" stroke="#5f744f" stroke-width="22"/><circle cx="203" cy="100" r="6" fill="#5f744f"/><circle cx="227" cy="100" r="6" fill="#5f744f"/><circle cx="207" cy="122" r="3.5" fill="#5f744f"/><circle cx="223" cy="122" r="3.5" fill="#5f744f"/><g fill="none" stroke="#5f744f" stroke-width="9" stroke-linecap="round" stroke-linejoin="miter" stroke-miterlimit="10"><path d="M138 85 L100 50 L60 90 L50 130"/><path d="M138 120 L85 105 L45 150 L38 195"/><path d="M138 160 L80 165 L45 215 L45 255"/><path d="M138 205 L95 225 L70 275 L72 312"/><path d="M255 62 L290 25 L335 55 L350 95"/><path d="M278 110 L325 95 L360 125 L375 150"/><path d="M162 225 L210 255 L250 295 L255 335"/><path d="M156 262 L185 300 L200 345"/></g><g fill="none" stroke="#5f744f" stroke-width="14" stroke-linecap="butt" stroke-linejoin="miter" stroke-miterlimit="10"><path d="M338 185 L355 250 L375 205 L395 250 L412 185"/><path d="M434 218 H496 V198 L484 182 H446 L434 198 V232 L448 250 H496"/><path d="M523 130 V250 M523 182 H565 L581 198 V234 L565 250 H523"/></g></g></g>
<g transform="translate(18.0,24)"><g transform="translate(30,0)"><path d="M215 12 V47" fill="none" stroke="#697c59" stroke-width="3" stroke-linecap="round"/><polygon points="138,50 168,50 168,250 153,308 138,250" fill="#697c59"/><circle cx="215" cy="110" r="52" fill="none" stroke="#697c59" stroke-width="22"/><circle cx="203" cy="100" r="6" fill="#697c59"/><circle cx="227" cy="100" r="6" fill="#697c59"/><circle cx="207" cy="122" r="3.5" fill="#697c59"/><circle cx="223" cy="122" r="3.5" fill="#697c59"/><g fill="none" stroke="#697c59" stroke-width="9" stroke-linecap="round" stroke-linejoin="miter" stroke-miterlimit="10"><path d="M138 85 L100 50 L60 90 L50 130"/><path d="M138 120 L85 105 L45 150 L38 195"/><path d="M138 160 L80 165 L45 215 L45 255"/><path d="M138 205 L95 225 L70 275 L72 312"/><path d="M255 62 L290 25 L335 55 L350 95"/><path d="M278 110 L325 95 L360 125 L375 150"/><path d="M162 225 L210 255 L250 295 L255 335"/><path d="M156 262 L185 300 L200 345"/></g><g fill="none" stroke="#697c59" stroke-width="14" stroke-linecap="butt" stroke-linejoin="miter" stroke-miterlimit="10"><path d="M338 185 L355 250 L375 205 L395 250 L412 185"/><path d="M434 218 H496 V198 L484 182 H446 L434 198 V232 L448 250 H496"/><path d="M523 130 V250 M523 182 H565 L581 198 V234 L565 250 H523"/></g></g></g>
<g transform="translate(16.5,22)"><g transform="translate(30,0)"><path d="M215 12 V47" fill="none" stroke="#728563" stroke-width="3" stroke-linecap="round"/><polygon points="138,50 168,50 168,250 153,308 138,250" fill="#728563"/><circle cx="215" cy="110" r="52" fill="none" stroke="#728563" stroke-width="22"/><circle cx="203" cy="100" r="6" fill="#728563"/><circle cx="227" cy="100" r="6" fill="#728563"/><circle cx="207" cy="122" r="3.5" fill="#728563"/><circle cx="223" cy="122" r="3.5" fill="#728563"/><g fill="none" stroke="#728563" stroke-width="9" stroke-linecap="round" stroke-linejoin="miter" stroke-miterlimit="10"><path d="M138 85 L100 50 L60 90 L50 130"/><path d="M138 120 L85 105 L45 150 L38 195"/><path d="M138 160 L80 165 L45 215 L45 255"/><path d="M138 205 L95 225 L70 275 L72 312"/><path d="M255 62 L290 25 L335 55 L350 95"/><path d="M278 110 L325 95 L360 125 L375 150"/><path d="M162 225 L210 255 L250 295 L255 335"/><path d="M156 262 L185 300 L200 345"/></g><g fill="none" stroke="#728563" stroke-width="14" stroke-linecap="butt" stroke-linejoin="miter" stroke-miterlimit="10"><path d="M338 185 L355 250 L375 205 L395 250 L412 185"/><path d="M434 218 H496 V198 L484 182 H446 L434 198 V232 L448 250 H496"/><path d="M523 130 V250 M523 182 H565 L581 198 V234 L565 250 H523"/></g></g></g>
<g transform="translate(15.0,20)"><g transform="translate(30,0)"><path d="M215 12 V47" fill="none" stroke="#7c8e6d" stroke-width="3" stroke-linecap="round"/><polygon points="138,50 168,50 168,250 153,308 138,250" fill="#7c8e6d"/><circle cx="215" cy="110" r="52" fill="none" stroke="#7c8e6d" stroke-width="22"/><circle cx="203" cy="100" r="6" fill="#7c8e6d"/><circle cx="227" cy="100" r="6" fill="#7c8e6d"/><circle cx="207" cy="122" r="3.5" fill="#7c8e6d"/><circle cx="223" cy="122" r="3.5" fill="#7c8e6d"/><g fill="none" stroke="#7c8e6d" stroke-width="9" stroke-linecap="round" stroke-linejoin="miter" stroke-miterlimit="10"><path d="M138 85 L100 50 L60 90 L50 130"/><path d="M138 120 L85 105 L45 150 L38 195"/><path d="M138 160 L80 165 L45 215 L45 255"/><path d="M138 205 L95 225 L70 275 L72 312"/><path d="M255 62 L290 25 L335 55 L350 95"/><path d="M278 110 L325 95 L360 125 L375 150"/><path d="M162 225 L210 255 L250 295 L255 335"/><path d="M156 262 L185 300 L200 345"/></g><g fill="none" stroke="#7c8e6d" stroke-width="14" stroke-linecap="butt" stroke-linejoin="miter" stroke-miterlimit="10"><path d="M338 185 L355 250 L375 205 L395 250 L412 185"/><path d="M434 218 H496 V198 L484 182 H446 L434 198 V232 L448 250 H496"/><path d="M523 130 V250 M523 182 H565 L581 198 V234 L565 250 H523"/></g></g></g>
<g transform="translate(13.5,18)"><g transform="translate(30,0)"><path d="M215 12 V47" fill="none" stroke="#859677" stroke-width="3" stroke-linecap="round"/><polygon points="138,50 168,50 168,250 153,308 138,250" fill="#859677"/><circle cx="215" cy="110" r="52" fill="none" stroke="#859677" stroke-width="22"/><circle cx="203" cy="100" r="6" fill="#859677"/><circle cx="227" cy="100" r="6" fill="#859677"/><circle cx="207" cy="122" r="3.5" fill="#859677"/><circle cx="223" cy="122" r="3.5" fill="#859677"/><g fill="none" stroke="#859677" stroke-width="9" stroke-linecap="round" stroke-linejoin="miter" stroke-miterlimit="10"><path d="M138 85 L100 50 L60 90 L50 130"/><path d="M138 120 L85 105 L45 150 L38 195"/><path d="M138 160 L80 165 L45 215 L45 255"/><path d="M138 205 L95 225 L70 275 L72 312"/><path d="M255 62 L290 25 L335 55 L350 95"/><path d="M278 110 L325 95 L360 125 L375 150"/><path d="M162 225 L210 255 L250 295 L255 335"/><path d="M156 262 L185 300 L200 345"/></g><g fill="none" stroke="#859677" stroke-width="14" stroke-linecap="butt" stroke-linejoin="miter" stroke-miterlimit="10"><path d="M338 185 L355 250 L375 205 L395 250 L412 185"/><path d="M434 218 H496 V198 L484 182 H446 L434 198 V232 L448 250 H496"/><path d="M523 130 V250 M523 182 H565 L581 198 V234 L565 250 H523"/></g></g></g>
<g transform="translate(12.0,16)"><g transform="translate(30,0)"><path d="M215 12 V47" fill="none" stroke="#8e9f81" stroke-width="3" stroke-linecap="round"/><polygon points="138,50 168,50 168,250 153,308 138,250" fill="#8e9f81"/><circle cx="215" cy="110" r="52" fill="none" stroke="#8e9f81" stroke-width="22"/><circle cx="203" cy="100" r="6" fill="#8e9f81"/><circle cx="227" cy="100" r="6" fill="#8e9f81"/><circle cx="207" cy="122" r="3.5" fill="#8e9f81"/><circle cx="223" cy="122" r="3.5" fill="#8e9f81"/><g fill="none" stroke="#8e9f81" stroke-width="9" stroke-linecap="round" stroke-linejoin="miter" stroke-miterlimit="10"><path d="M138 85 L100 50 L60 90 L50 130"/><path d="M138 120 L85 105 L45 150 L38 195"/><path d="M138 160 L80 165 L45 215 L45 255"/><path d="M138 205 L95 225 L70 275 L72 312"/><path d="M255 62 L290 25 L335 55 L350 95"/><path d="M278 110 L325 95 L360 125 L375 150"/><path d="M162 225 L210 255 L250 295 L255 335"/><path d="M156 262 L185 300 L200 345"/></g><g fill="none" stroke="#8e9f81" stroke-width="14" stroke-linecap="butt" stroke-linejoin="miter" stroke-miterlimit="10"><path d="M338 185 L355 250 L375 205 L395 250 L412 185"/><path d="M434 218 H496 V198 L484 182 H446 L434 198 V232 L448 250 H496"/><path d="M523 130 V250 M523 182 H565 L581 198 V234 L565 250 H523"/></g></g></g>
<g transform="translate(10.5,14)"><g transform="translate(30,0)"><path d="M215 12 V47" fill="none" stroke="#98a88a" stroke-width="3" stroke-linecap="round"/><polygon points="138,50 168,50 168,250 153,308 138,250" fill="#98a88a"/><circle cx="215" cy="110" r="52" fill="none" stroke="#98a88a" stroke-width="22"/><circle cx="203" cy="100" r="6" fill="#98a88a"/><circle cx="227" cy="100" r="6" fill="#98a88a"/><circle cx="207" cy="122" r="3.5" fill="#98a88a"/><circle cx="223" cy="122" r="3.5" fill="#98a88a"/><g fill="none" stroke="#98a88a" stroke-width="9" stroke-linecap="round" stroke-linejoin="miter" stroke-miterlimit="10"><path d="M138 85 L100 50 L60 90 L50 130"/><path d="M138 120 L85 105 L45 150 L38 195"/><path d="M138 160 L80 165 L45 215 L45 255"/><path d="M138 205 L95 225 L70 275 L72 312"/><path d="M255 62 L290 25 L335 55 L350 95"/><path d="M278 110 L325 95 L360 125 L375 150"/><path d="M162 225 L210 255 L250 295 L255 335"/><path d="M156 262 L185 300 L200 345"/></g><g fill="none" stroke="#98a88a" stroke-width="14" stroke-linecap="butt" stroke-linejoin="miter" stroke-miterlimit="10"><path d="M338 185 L355 250 L375 205 L395 250 L412 185"/><path d="M434 218 H496 V198 L484 182 H446 L434 198 V232 L448 250 H496"/><path d="M523 130 V250 M523 182 H565 L581 198 V234 L565 250 H523"/></g></g></g>
<g transform="translate(9.0,12)"><g transform="translate(30,0)"><path d="M215 12 V47" fill="none" stroke="#a1b194" stroke-width="3" stroke-linecap="round"/><polygon points="138,50 168,50 168,250 153,308 138,250" fill="#a1b194"/><circle cx="215" cy="110" r="52" fill="none" stroke="#a1b194" stroke-width="22"/><circle cx="203" cy="100" r="6" fill="#a1b194"/><circle cx="227" cy="100" r="6" fill="#a1b194"/><circle cx="207" cy="122" r="3.5" fill="#a1b194"/><circle cx="223" cy="122" r="3.5" fill="#a1b194"/><g fill="none" stroke="#a1b194" stroke-width="9" stroke-linecap="round" stroke-linejoin="miter" stroke-miterlimit="10"><path d="M138 85 L100 50 L60 90 L50 130"/><path d="M138 120 L85 105 L45 150 L38 195"/><path d="M138 160 L80 165 L45 215 L45 255"/><path d="M138 205 L95 225 L70 275 L72 312"/><path d="M255 62 L290 25 L335 55 L350 95"/><path d="M278 110 L325 95 L360 125 L375 150"/><path d="M162 225 L210 255 L250 295 L255 335"/><path d="M156 262 L185 300 L200 345"/></g><g fill="none" stroke="#a1b194" stroke-width="14" stroke-linecap="butt" stroke-linejoin="miter" stroke-miterlimit="10"><path d="M338 185 L355 250 L375 205 L395 250 L412 185"/><path d="M434 218 H496 V198 L484 182 H446 L434 198 V232 L448 250 H496"/><path d="M523 130 V250 M523 182 H565 L581 198 V234 L565 250 H523"/></g></g></g>
<g transform="translate(7.5,10)"><g transform="translate(30,0)"><path d="M215 12 V47" fill="none" stroke="#aab99e" stroke-width="3" stroke-linecap="round"/><polygon points="138,50 168,50 168,250 153,308 138,250" fill="#aab99e"/><circle cx="215" cy="110" r="52" fill="none" stroke="#aab99e" stroke-width="22"/><circle cx="203" cy="100" r="6" fill="#aab99e"/><circle cx="227" cy="100" r="6" fill="#aab99e"/><circle cx="207" cy="122" r="3.5" fill="#aab99e"/><circle cx="223" cy="122" r="3.5" fill="#aab99e"/><g fill="none" stroke="#aab99e" stroke-width="9" stroke-linecap="round" stroke-linejoin="miter" stroke-miterlimit="10"><path d="M138 85 L100 50 L60 90 L50 130"/><path d="M138 120 L85 105 L45 150 L38 195"/><path d="M138 160 L80 165 L45 215 L45 255"/><path d="M138 205 L95 225 L70 275 L72 312"/><path d="M255 62 L290 25 L335 55 L350 95"/><path d="M278 110 L325 95 L360 125 L375 150"/><path d="M162 225 L210 255 L250 295 L255 335"/><path d="M156 262 L185 300 L200 345"/></g><g fill="none" stroke="#aab99e" stroke-width="14" stroke-linecap="butt" stroke-linejoin="miter" stroke-miterlimit="10"><path d="M338 185 L355 250 L375 205 L395 250 L412 185"/><path d="M434 218 H496 V198 L484 182 H446 L434 198 V232 L448 250 H496"/><path d="M523 130 V250 M523 182 H565 L581 198 V234 L565 250 H523"/></g></g></g>
<g transform="translate(6.0,8)"><g transform="translate(30,0)"><path d="M215 12 V47" fill="none" stroke="#b4c2a8" stroke-width="3" stroke-linecap="round"/><polygon points="138,50 168,50 168,250 153,308 138,250" fill="#b4c2a8"/><circle cx="215" cy="110" r="52" fill="none" stroke="#b4c2a8" stroke-width="22"/><circle cx="203" cy="100" r="6" fill="#b4c2a8"/><circle cx="227" cy="100" r="6" fill="#b4c2a8"/><circle cx="207" cy="122" r="3.5" fill="#b4c2a8"/><circle cx="223" cy="122" r="3.5" fill="#b4c2a8"/><g fill="none" stroke="#b4c2a8" stroke-width="9" stroke-linecap="round" stroke-linejoin="miter" stroke-miterlimit="10"><path d="M138 85 L100 50 L60 90 L50 130"/><path d="M138 120 L85 105 L45 150 L38 195"/><path d="M138 160 L80 165 L45 215 L45 255"/><path d="M138 205 L95 225 L70 275 L72 312"/><path d="M255 62 L290 25 L335 55 L350 95"/><path d="M278 110 L325 95 L360 125 L375 150"/><path d="M162 225 L210 255 L250 295 L255 335"/><path d="M156 262 L185 300 L200 345"/></g><g fill="none" stroke="#b4c2a8" stroke-width="14" stroke-linecap="butt" stroke-linejoin="miter" stroke-miterlimit="10"><path d="M338 185 L355 250 L375 205 L395 250 L412 185"/><path d="M434 218 H496 V198 L484 182 H446 L434 198 V232 L448 250 H496"/><path d="M523 130 V250 M523 182 H565 L581 198 V234 L565 250 H523"/></g></g></g>
<g transform="translate(4.5,6)"><g transform="translate(30,0)"><path d="M215 12 V47" fill="none" stroke="#bdcbb2" stroke-width="3" stroke-linecap="round"/><polygon points="138,50 168,50 168,250 153,308 138,250" fill="#bdcbb2"/><circle cx="215" cy="110" r="52" fill="none" stroke="#bdcbb2" stroke-width="22"/><circle cx="203" cy="100" r="6" fill="#bdcbb2"/><circle cx="227" cy="100" r="6" fill="#bdcbb2"/><circle cx="207" cy="122" r="3.5" fill="#bdcbb2"/><circle cx="223" cy="122" r="3.5" fill="#bdcbb2"/><g fill="none" stroke="#bdcbb2" stroke-width="9" stroke-linecap="round" stroke-linejoin="miter" stroke-miterlimit="10"><path d="M138 85 L100 50 L60 90 L50 130"/><path d="M138 120 L85 105 L45 150 L38 195"/><path d="M138 160 L80 165 L45 215 L45 255"/><path d="M138 205 L95 225 L70 275 L72 312"/><path d="M255 62 L290 25 L335 55 L350 95"/><path d="M278 110 L325 95 L360 125 L375 150"/><path d="M162 225 L210 255 L250 295 L255 335"/><path d="M156 262 L185 300 L200 345"/></g><g fill="none" stroke="#bdcbb2" stroke-width="14" stroke-linecap="butt" stroke-linejoin="miter" stroke-miterlimit="10"><path d="M338 185 L355 250 L375 205 L395 250 L412 185"/><path d="M434 218 H496 V198 L484 182 H446 L434 198 V232 L448 250 H496"/><path d="M523 130 V250 M523 182 H565 L581 198 V234 L565 250 H523"/></g></g></g>
<g transform="translate(3.0,4)"><g transform="translate(30,0)"><path d="M215 12 V47" fill="none" stroke="#c7d3bc" stroke-width="3" stroke-linecap="round"/><polygon points="138,50 168,50 168,250 153,308 138,250" fill="#c7d3bc"/><circle cx="215" cy="110" r="52" fill="none" stroke="#c7d3bc" stroke-width="22"/><circle cx="203" cy="100" r="6" fill="#c7d3bc"/><circle cx="227" cy="100" r="6" fill="#c7d3bc"/><circle cx="207" cy="122" r="3.5" fill="#c7d3bc"/><circle cx="223" cy="122" r="3.5" fill="#c7d3bc"/><g fill="none" stroke="#c7d3bc" stroke-width="9" stroke-linecap="round" stroke-linejoin="miter" stroke-miterlimit="10"><path d="M138 85 L100 50 L60 90 L50 130"/><path d="M138 120 L85 105 L45 150 L38 195"/><path d="M138 160 L80 165 L45 215 L45 255"/><path d="M138 205 L95 225 L70 275 L72 312"/><path d="M255 62 L290 25 L335 55 L350 95"/><path d="M278 110 L325 95 L360 125 L375 150"/><path d="M162 225 L210 255 L250 295 L255 335"/><path d="M156 262 L185 300 L200 345"/></g><g fill="none" stroke="#c7d3bc" stroke-width="14" stroke-linecap="butt" stroke-linejoin="miter" stroke-miterlimit="10"><path d="M338 185 L355 250 L375 205 L395 250 L412 185"/><path d="M434 218 H496 V198 L484 182 H446 L434 198 V232 L448 250 H496"/><path d="M523 130 V250 M523 182 H565 L581 198 V234 L565 250 H523"/></g></g></g>
<g transform="translate(1.5,2)"><g transform="translate(30,0)"><path d="M215 12 V47" fill="none" stroke="#d0dcc6" stroke-width="3" stroke-linecap="round"/><polygon points="138,50 168,50 168,250 153,308 138,250" fill="#d0dcc6"/><circle cx="215" cy="110" r="52" fill="none" stroke="#d0dcc6" stroke-width="22"/><circle cx="203" cy="100" r="6" fill="#d0dcc6"/><circle cx="227" cy="100" r="6" fill="#d0dcc6"/><circle cx="207" cy="122" r="3.5" fill="#d0dcc6"/><circle cx="223" cy="122" r="3.5" fill="#d0dcc6"/><g fill="none" stroke="#d0dcc6" stroke-width="9" stroke-linecap="round" stroke-linejoin="miter" stroke-miterlimit="10"><path d="M138 85 L100 50 L60 90 L50 130"/><path d="M138 120 L85 105 L45 150 L38 195"/><path d="M138 160 L80 165 L45 215 L45 255"/><path d="M138 205 L95 225 L70 275 L72 312"/><path d="M255 62 L290 25 L335 55 L350 95"/><path d="M278 110 L325 95 L360 125 L375 150"/><path d="M162 225 L210 255 L250 295 L255 335"/><path d="M156 262 L185 300 L200 345"/></g><g fill="none" stroke="#d0dcc6" stroke-width="14" stroke-linecap="butt" stroke-linejoin="miter" stroke-miterlimit="10"><path d="M338 185 L355 250 L375 205 L395 250 L412 185"/><path d="M434 218 H496 V198 L484 182 H446 L434 198 V232 L448 250 H496"/><path d="M523 130 V250 M523 182 H565 L581 198 V234 L565 250 H523"/></g></g></g>
<g transform="translate(30,0)"><path d="M215 12 V47" fill="none" stroke="#fffdf0" stroke-width="3" stroke-linecap="round"/><polygon points="138,50 168,50 168,250 153,308 138,250" fill="#fffdf0"/><circle cx="215" cy="110" r="52" fill="none" stroke="#fffdf0" stroke-width="22"/><circle cx="203" cy="100" r="6" fill="#fffdf0"/><circle cx="227" cy="100" r="6" fill="#fffdf0"/><circle cx="207" cy="122" r="3.5" fill="#fffdf0"/><circle cx="223" cy="122" r="3.5" fill="#fffdf0"/><g fill="none" stroke="#fffdf0" stroke-width="9" stroke-linecap="round" stroke-linejoin="miter" stroke-miterlimit="10"><path d="M138 85 L100 50 L60 90 L50 130"/><path d="M138 120 L85 105 L45 150 L38 195"/><path d="M138 160 L80 165 L45 215 L45 255"/><path d="M138 205 L95 225 L70 275 L72 312"/><path d="M255 62 L290 25 L335 55 L350 95"/><path d="M278 110 L325 95 L360 125 L375 150"/><path d="M162 225 L210 255 L250 295 L255 335"/><path d="M156 262 L185 300 L200 345"/></g><g fill="none" stroke="#fffdf0" stroke-width="14" stroke-linecap="butt" stroke-linejoin="miter" stroke-miterlimit="10"><path d="M338 185 L355 250 L375 205 L395 250 L412 185"/><path d="M434 218 H496 V198 L484 182 H446 L434 198 V232 L448 250 H496"/><path d="M523 130 V250 M523 182 H565 L581 198 V234 L565 250 H523"/></g></g>
</svg>