<svg xmlns="http://www.w3.org/2000/svg" width="1360" height="800" viewBox="0 0 680 400" xmlns:c2pa="http://c2pa.org/manifest"><metadata><c2pa:manifest>AAAWgmp1bWIAAAAeanVtZGMycGEAEQAQgAAAqgA4m3EDYzJwYQAAABZcanVtYgAAAEdqdW1kYzJtYQARABCAAACqADibcQN1cm46YzJwYTo2YzliNjgzZC1hODI2LTQ4ODktYjU1Ny1iNTRhMzBiMTNlZmIAAAADl2p1bWIAAAApanVtZGMyYXMAEQAQgAAAqgA4m3EDYzJwYS5hc3NlcnRpb25zAAAAALxqdW1iAAAARGp1bWRjYm9yABEAEIAAAKoAOJtxE2MycGEuaW5ncmVkaWVudC52MwAAAAAYYzJzaMlkTPMMuVgCASwJguTs7KoAAABwY2JvcqNpZGM6Zm9ybWF0bWltYWdlL3N2Zyt4bWxqaW5zdGFuY2VJRHgseG1wOmlpZDoxMGIwMjk3ZC1iZWQxLTRhZDgtOWMyMy1lNTg3MjNmYmUwNWRscmVsYXRpb25zaGlwaHBhcmVudE9mAAAB4mp1bWIAAABBanVtZGNib3IAEQAQgAAAqgA4m3ETYzJwYS5hY3Rpb25zLnYyAAAAABhjMnNopY9kzXU7NODIvMxhqMaGaAAAAZljYm9yomdhY3Rpb25zgqJmYWN0aW9ua2MycGEub3BlbmVkanBhcmFtZXRlcnOha2luZ3JlZGllbnRzgaJjdXJseC1zZWxmI2p1bWJmPWMycGEuYXNzZXJ0aW9ucy9jMnBhLmluZ3JlZGllbnQudjNkaGFzaFggS7a6VZsS8X1LfDMb2/Z7pceHrBExIN2GMKZnWV8M/ySkZmFjdGlvbngdY29tLmFudGhyb3BpYy5jbGF1ZGUucHJvdmlkZWRqcGFyYW1ldGVyc6F4H2NvbS5hbnRocm9waWMub3JpZ2luLWNvbmZpZGVuY2VndW5rbm93bmtkZXNjcmlwdGlvbnhmQ2xhdWRlIHByb3ZpZGVkIHRoaXMgZmlsZSBhdCB0aGUgcmVxdWVzdCBvZiBhIHVzZXIgYW5kIG1heSBoYXZlIGNyZWF0ZWQgb3IgbW9kaWZpZWQgdGhlIGZpbGUgY29udGVudHMubXNvZnR3YXJlQWdlbnShZG5hbWVmQ2xhdWRlcmFsbEFjdGlvbnNJbmNsdWRlZPUAAADIanVtYgAAAEBqdW1kY2JvcgARABCAAACqADibcRNjMnBhLmhhc2guZGF0YQAAAAAYYzJzaE8iLXiWifnHNNTxR4T7JREAAACAY2JvcqVjYWxnZnNoYTI1NmNwYWRNAAAAAAAAAAAAAAAAAGRoYXNoWCCweJgTfribVbYg86FWIFLrD1YOrIZTskT5WKpeFSOUVGRuYW1lbmp1bWJmIG1hbmlmZXN0amV4Y2x1c2lvbnOBomVzdGFydBiXZmxlbmd0aBkeBAAAAj5qdW1iAAAAJ2p1bWRjMmNsABEAEIAAAKoAOJtxA2MycGEuY2xhaW0udjIAAAACD2Nib3KlY2FsZ2ZzaGEyNTZpc2lnbmF0dXJleE1zZWxmI2p1bWJmPS9jMnBhL3VybjpjMnBhOjZjOWI2ODNkLWE4MjYtNDg4OS1iNTU3LWI1NGEzMGIxM2VmYi9jMnBhLnNpZ25hdHVyZWppbnN0YW5jZUlEeCx4bXA6aWlkOjE1YWJjYWUyLWEwYTctNDc3ZC05ZWMxLWUzNzc4MmJiODc4NXJjcmVhdGVkX2Fzc2VydGlvbnODomN1cmx4LXNlbGYjanVtYmY9YzJwYS5hc3NlcnRpb25zL2MycGEuaW5ncmVkaWVudC52M2RoYXNoWCBLtrpVmxLxfUt8Mxvb9nulx4esETEg3YYwpmdZXwz/JKJjdXJseCpzZWxmI2p1bWJmPWMycGEuYXNzZXJ0aW9ucy9jMnBhLmFjdGlvbnMudjJkaGFzaFgg7iWWy5/KH2lDFKD8J6o+YdwPgqEvD4rvByosY6oXAuCiY3VybHgpc2VsZiNqdW1iZj1jMnBhLmFzc2VydGlvbnMvYzJwYS5oYXNoLmRhdGFkaGFzaFggn9x0ZpkgewZ7QeXo7ACn74T4pIIg5+44eb4pQuN0VAt0Y2xhaW1fZ2VuZXJhdG9yX2luZm+jZG5hbWVvQW50aHJvcGljIEZpbGVzZ3ZlcnNpb25lMS4wLjBrc3BlY1ZlcnNpb25lMi40LjAAABA4anVtYgAAAChqdW1kYzJjcwARABCAAACqADibcQNjMnBhLnNpZ25hdHVyZQAAABAIY2JvctKEWQISogEmGCFZAgowggIGMIIBjaADAgECAhRA5aAK7sI50L64g/oGQgU9Z1UTADAKBggqhkjOPQQDAzBJMRcwFQYDVQQKEw5BbnRocm9waWMsIFBCQzEuMCwGA1UEAxMlQW50aHJvcGljIENvbnRlbnQgQ3JlZGVudGlhbHMgUm9vdCBDQTAeFw0yNjA4MDcxODQzNTZaFw0yODA4MDYxOTQzNTZaMEQxFzAVBgNVBAoTDkFudGhyb3BpYywgUEJDMSkwJwYDVQQDEyBBbnRocm9waWMgQ2xhdWRlIENvbnRlbnQgU2lnbmluZzBZMBMGByqGSM49AgEGCCqGSM49AwEHA0IABJh6CmvLUBgFFNU0vUKlOVtE6djd17L5SuwX0LemFisBM3dkd/3cyjxFA3Qo5S46fX0/ihY0VZ7mfb9KF703t5OjWDBWMA4GA1UdDwEB/wQEAwIHgDAVBgNVHSUEDjAMBgorBgEEAYPoXgIBMAwGA1UdEwEB/wQCMAAwHwYDVR0jBBgwFoAUzlHiBIFOZFsj+OPEz5o+nMHXXMIwCgYIKoZIzj0EAwMDZwAwZAIwMXMdFJ4BetLLVY7ORuE9noqbbAZOZn/aArXyTwFAZfKrPzxF2vPoJNf1+UCdg1XGAjBwX1zd9WGqYkqmL5SFqw1QySjr1zJfpJM9+1rdDwSPLMOPOjKuiXjoU/pUUeG9RwmhY3BhZFkNngAAAAAAAAAAAAAAAAAAAAAAAAAAAAAAAAAAAAAAAAAAAAAAAAAAAAAAAAAAAAAAAAAAAAAAAAAAAAAAAAAAAAAAAAAAAAAAAAAAAAAAAAAAAAAAAAAAAAAAAAAAAAAAAAAAAAAAAAAAAAAAAAAAAAAAAAAAAAAAAAAAAAAAAAAAAAAAAAAAAAAAAAAAAAAAAAAAAAAAAAAAAAAAAAAAAAAAAAAAAAAAAAAAAAAAAAAAAAAAAAAAAAAAAAAAAAAAAAAAAAAAAAAAAAAAAAAAAAAAAAAAAAAAAAAAAAAAAAAAAAAAAAAAAAAAAAAAAAAAAAAAAAAAAAAAAAAAAAAAAAAAAAAAAAAAAAAAAAAAAAAAAAAAAAAAAAAAAAAAAAAAAAAAAAAAAAAAAAAAAAAAAAAAAAAAAAAAAAAAAAAAAAAAAAAAAAAAAAAAAAAAAAAAAAAAAAAAAAAAAAAAAAAAAAAAAAAAAAAAAAAAAAAAAAAAAAAAAAAAAAAAAAAAAAAAAAAAAAAAAAAAAAAAAAAAAAAAAAAAAAAAAAAAAAAAAAAAAAAAAAAAAAAAAAAAAAAAAAAAAAAAAAAAAAAAAAAAAAAAAAAAAAAAAAAAAAAAAAAAAAAAAAAAAAAAAAAAAAAAAAAAAAAAAAAAAAAAAAAAAAAAAAAAAAAAAAAAAAAAAAAAAAAAAAAAAAAAAAAAAAAAAAAAAAAAAAAAAAAAAAAAAAAAAAAAAAAAAAAAAAAAAAAAAAAAAAAAAAAAAAAAAAAAAAAAAAAAAAAAAAAAAAAAAAAAAAAAAAAAAAAAAAAAAAAAAAAAAAAAAAAAAAAAAAAAAAAAAAAAAAAAAAAAAAAAAAAAAAAAAAAAAAAAAAAAAAAAAAAAAAAAAAAAAAAAAAAAAAAAAAAAAAAAAAAAAAAAAAAAAAAAAAAAAAAAAAAAAAAAAAAAAAAAAAAAAAAAAAAAAAAAAAAAAAAAAAAAAAAAAAAAAAAAAAAAAAAAAAAAAAAAAAAAAAAAAAAAAAAAAAAAAAAAAAAAAAAAAAAAAAAAAAAAAAAAAAAAAAAAAAAAAAAAAAAAAAAAAAAAAAAAAAAAAAAAAAAAAAAAAAAAAAAAAAAAAAAAAAAAAAAAAAAAAAAAAAAAAAAAAAAAAAAAAAAAAAAAAAAAAAAAAAAAAAAAAAAAAAAAAAAAAAAAAAAAAAAAAAAAAAAAAAAAAAAAAAAAAAAAAAAAAAAAAAAAAAAAAAAAAAAAAAAAAAAAAAAAAAAAAAAAAAAAAAAAAAAAAAAAAAAAAAAAAAAAAAAAAAAAAAAAAAAAAAAAAAAAAAAAAAAAAAAAAAAAAAAAAAAAAAAAAAAAAAAAAAAAAAAAAAAAAAAAAAAAAAAAAAAAAAAAAAAAAAAAAAAAAAAAAAAAAAAAAAAAAAAAAAAAAAAAAAAAAAAAAAAAAAAAAAAAAAAAAAAAAAAAAAAAAAAAAAAAAAAAAAAAAAAAAAAAAAAAAAAAAAAAAAAAAAAAAAAAAAAAAAAAAAAAAAAAAAAAAAAAAAAAAAAAAAAAAAAAAAAAAAAAAAAAAAAAAAAAAAAAAAAAAAAAAAAAAAAAAAAAAAAAAAAAAAAAAAAAAAAAAAAAAAAAAAAAAAAAAAAAAAAAAAAAAAAAAAAAAAAAAAAAAAAAAAAAAAAAAAAAAAAAAAAAAAAAAAAAAAAAAAAAAAAAAAAAAAAAAAAAAAAAAAAAAAAAAAAAAAAAAAAAAAAAAAAAAAAAAAAAAAAAAAAAAAAAAAAAAAAAAAAAAAAAAAAAAAAAAAAAAAAAAAAAAAAAAAAAAAAAAAAAAAAAAAAAAAAAAAAAAAAAAAAAAAAAAAAAAAAAAAAAAAAAAAAAAAAAAAAAAAAAAAAAAAAAAAAAAAAAAAAAAAAAAAAAAAAAAAAAAAAAAAAAAAAAAAAAAAAAAAAAAAAAAAAAAAAAAAAAAAAAAAAAAAAAAAAAAAAAAAAAAAAAAAAAAAAAAAAAAAAAAAAAAAAAAAAAAAAAAAAAAAAAAAAAAAAAAAAAAAAAAAAAAAAAAAAAAAAAAAAAAAAAAAAAAAAAAAAAAAAAAAAAAAAAAAAAAAAAAAAAAAAAAAAAAAAAAAAAAAAAAAAAAAAAAAAAAAAAAAAAAAAAAAAAAAAAAAAAAAAAAAAAAAAAAAAAAAAAAAAAAAAAAAAAAAAAAAAAAAAAAAAAAAAAAAAAAAAAAAAAAAAAAAAAAAAAAAAAAAAAAAAAAAAAAAAAAAAAAAAAAAAAAAAAAAAAAAAAAAAAAAAAAAAAAAAAAAAAAAAAAAAAAAAAAAAAAAAAAAAAAAAAAAAAAAAAAAAAAAAAAAAAAAAAAAAAAAAAAAAAAAAAAAAAAAAAAAAAAAAAAAAAAAAAAAAAAAAAAAAAAAAAAAAAAAAAAAAAAAAAAAAAAAAAAAAAAAAAAAAAAAAAAAAAAAAAAAAAAAAAAAAAAAAAAAAAAAAAAAAAAAAAAAAAAAAAAAAAAAAAAAAAAAAAAAAAAAAAAAAAAAAAAAAAAAAAAAAAAAAAAAAAAAAAAAAAAAAAAAAAAAAAAAAAAAAAAAAAAAAAAAAAAAAAAAAAAAAAAAAAAAAAAAAAAAAAAAAAAAAAAAAAAAAAAAAAAAAAAAAAAAAAAAAAAAAAAAAAAAAAAAAAAAAAAAAAAAAAAAAAAAAAAAAAAAAAAAAAAAAAAAAAAAAAAAAAAAAAAAAAAAAAAAAAAAAAAAAAAAAAAAAAAAAAAAAAAAAAAAAAAAAAAAAAAAAAAAAAAAAAAAAAAAAAAAAAAAAAAAAAAAAAAAAAAAAAAAAAAAAAAAAAAAAAAAAAAAAAAAAAAAAAAAAAAAAAAAAAAAAAAAAAAAAAAAAAAAAAAAAAAAAAAAAAAAAAAAAAAAAAAAAAAAAAAAAAAAAAAAAAAAAAAAAAAAAAAAAAAAAAAAAAAAAAAAAAAAAAAAAAAAAAAAAAAAAAAAAAAAAAAAAAAAAAAAAAAAAAAAAAAAAAAAAAAAAAAAAAAAAAAAAAAAAAAAAAAAAAAAAAAAAAAAAAAAAAAAAAAAAAAAAAAAAAAAAAAAAAAAAAAAAAAAAAAAAAAAAAAAAAAAAAAAAAAAAAAAAAAAAAAAAAAAAAAAAAAAAAAAAAAAAAAAAAAAAAAAAAAAAAAAAAAAAAAAAAAAAAAAAAAAAAAAAAAAAAAAAAAAAAAAAAAAAAAAAAAAAAAAAAAAAAAAAAAAAAAAAAAAAAAAAAAAAAAAAAAAAAAAAAAAAAAAAAAAAAAAAAAAAAAAAAAAAAAAAAAAAAAAAAAAAAAAAAAAAAAAAAAAAAAAAAAAAAAAAAAAAAAAAAAAAAAAAAAAAAAAAAAAAAAAAAAAAAAAAAAAAAAAAAAAAAAAAAAAAAAAAAAAAAAAAAAAAAAAAAAAAAAAAAAAAAAAAAAAAAAAAAAAAAAAAAAAAAAAAAAAAAAAAAAAAAAAAAAAAAAAAAAAAAAAAAAAAAAAAAAAAAAAAAAAAAAAAAAAAAAAAAAAAAAAAAAAAAAAAAAAAAAAAAAAAAAAAAAAAAAAAAAAAAAAAAAAAAAAAAAAAAAAAAAAAAAAAAAAAAAAAAAAAAAAAAAAAAAAAAAAAAAAAAAAAAAAAAAAAAAAAAAAAAAAAAAAAAAAAAAAAAAAAAAAAAAAAAAAAAAAAAAAAAAAAAAAAAAAAAAAAAAAAAAAAAAAAAAAAAAAAAAAAAAAAAAAAAAAAAAAAAAAAAAAAAAAAAAAAAAAAAAAAAAAAAAAAAAAAAAAAAAAAAAAAAAAAAAAAAAAAAAAAAAAAAAAAAAAAAAAAAAAAAAAAAAAAAAAAAAAAAAAAAAAAAAAAAAAAAAAAAAAAAAAAAAAAAAAAAAAAAAAAAAAAAAAAAAAAAAAAAAAAAAAAAAAAAAAAAAAAAAAAAAAAAAAAAAAAAAAAAAAAAAAAAAAAAAAAAAAAAAAAAAAAAAAAAAAAAAAAAAAAAAAAAAAAAAAAAAAAAAAAAAAAAAAAAAAAAAAAAAAAAAAAAAAAAAAAAAAAAAAAAAAAAAAAAAAAAAAAAAAAAAAAAAAAAAAAAAAAAAAAAAAAAAAAAAAAAAAAAAAAAAAAAAAAAAAAAAAAAAAAAAAAAAAAAAAAAAAAAAAAAAAAAAAAAAAAAAAAAAAAAAAAAAAAAAAAAAAAAAAAAAAAAAAAAAAAAAAAAAAAAAAAAAAAAAAAAAAAAAAAAAAAAAAAAAAAAAAAAAAAAAAAAAAAAAAAAAAAAAAAAAAAAAAAAAAAAAAAAAAAAAAAAAAAAAAAAAAAAAAAAAAAAAAAAAAAAAAAAAAAAAAAAAAAAAAAAAAAAAAAAAAAAAAAAAAAAAAAAAAAAAAAAAAAAAAAAAAAAAAAAAAAAAAAAAAAAAAAAAAAAAAAAAAAAAAAAAAAAAAAAAAAAAAAAAAAAAAAAAAAAAAAAAAAAAAAAAAAAAAAAAAAAAAAAAAAAAAAAAAAAAAAAAAAAAAAAAAAAAAAAAAAAAAAAAAAAAAAAAAAAAAAAAAAAAAAAAAAAAAAAAAAAAAAAAAAAAAAAAAAAAAAAAAAAAAAAAAAAAAAAAAAAAAAAAAAAAAAAAAAAAAAAAAAAAAAAAAAAAAAAAAAAAAAAAAAAAAAAAAAAAAAAAAAAAAAAAPZYQMtNRDYjZS4jz10s4MO0T+YEkKxAG6BHGyGZkkx35OBzsigjnzxL4Yd3eld0nSJ/ojmkHKw60nKeD2fvXIEOsqA=</c2pa:manifest></metadata>
<g transform="translate(36,50)" opacity="0.2"><g transform="translate(30,0)"><path d="M215 12 V47" fill="none" stroke="#2b2350" stroke-width="3" stroke-linecap="round"/><polygon points="138,50 168,50 168,250 153,308 138,250" fill="#2b2350"/><circle cx="215" cy="110" r="52" fill="none" stroke="#2b2350" stroke-width="22"/><circle cx="203" cy="100" r="6" fill="#2b2350"/><circle cx="227" cy="100" r="6" fill="#2b2350"/><circle cx="207" cy="122" r="3.5" fill="#2b2350"/><circle cx="223" cy="122" r="3.5" fill="#2b2350"/><g fill="none" stroke="#2b2350" stroke-width="9" stroke-linecap="round" stroke-linejoin="miter" stroke-miterlimit="10"><path d="M138 85 L100 50 L60 90 L50 130"/><path d="M138 120 L85 105 L45 150 L38 195"/><path d="M138 160 L80 165 L45 215 L45 255"/><path d="M138 205 L95 225 L70 275 L72 312"/><path d="M255 62 L290 25 L335 55 L350 95"/><path d="M278 110 L325 95 L360 125 L375 150"/><path d="M162 225 L210 255 L250 295 L255 335"/><path d="M156 262 L185 300 L200 345"/></g><g fill="none" stroke="#2b2350" stroke-width="14" stroke-linecap="butt" stroke-linejoin="miter" stroke-miterlimit="10"><path d="M338 185 L355 250 L375 205 L395 250 L412 185"/><path d="M434 218 H496 V198 L484 182 H446 L434 198 V232 L448 250 H496"/><path d="M523 130 V250 M523 182 H565 L581 198 V234 L565 250 H523"/></g></g></g>
<g transform="translate(21.0,28)"><g transform="translate(30,0)"><path d="M215 12 V47" fill="none" stroke="#4b3f7a" stroke-width="3" stroke-linecap="round"/><polygon points="138,50 168,50 168,250 153,308 138,250" fill="#4b3f7a"/><circle cx="215" cy="110" r="52" fill="none" stroke="#4b3f7a" stroke-width="22"/><circle cx="203" cy="100" r="6" fill="#4b3f7a"/><circle cx="227" cy="100" r="6" fill="#4b3f7a"/><circle cx="207" cy="122" r="3.5" fill="#4b3f7a"/><circle cx="223" cy="122" r="3.5" fill="#4b3f7a"/><g fill="none" stroke="#4b3f7a" stroke-width="9" stroke-linecap="round" stroke-linejoin="miter" stroke-miterlimit="10"><path d="M138 85 L100 50 L60 90 L50 130"/><path d="M138 120 L85 105 L45 150 L38 195"/><path d="M138 160 L80 165 L45 215 L45 255"/><path d="M138 205 L95 225 L70 275 L72 312"/><path d="M255 62 L290 25 L335 55 L350 95"/><path d="M278 110 L325 95 L360 125 L375 150"/><path d="M162 225 L210 255 L250 295 L255 335"/><path d="M156 262 L185 300 L200 345"/></g><g fill="none" stroke="#4b3f7a" stroke-width="14" stroke-linecap="butt" stroke-linejoin="miter" stroke-miterlimit="10"><path d="M338 185 L355 250 L375 205 L395 250 L412 185"/><path d="M434 218 H496 V198 L484 182 H446 L434 198 V232 L448 250 H496"/><path d="M523 130 V250 M523 182 H565 L581 198 V234 L565 250 H523"/></g></g></g>
<g transform="translate(19.5,26)"><g transform="translate(30,0)"><path d="M215 12 V47" fill="none" stroke="#554983" stroke-width="3" stroke-linecap="round"/><polygon points="138,50 168,50 168,250 153,308 138,250" fill="#554983"/><circle cx="215" cy="110" r="52" fill="none" stroke="#554983" stroke-width="22"/><circle cx="203" cy="100" r="6" fill="#554983"/><circle cx="227" cy="100" r="6" fill="#554983"/><circle cx="207" cy="122" r="3.5" fill="#554983"/><circle cx="223" cy="122" r="3.5" fill="#554983"/><g fill="none" stroke="#554983" stroke-width="9" stroke-linecap="round" stroke-linejoin="miter" stroke-miterlimit="10"><path d="M138 85 L100 50 L60 90 L50 130"/><path d="M138 120 L85 105 L45 150 L38 195"/><path d="M138 160 L80 165 L45 215 L45 255"/><path d="M138 205 L95 225 L70 275 L72 312"/><path d="M255 62 L290 25 L335 55 L350 95"/><path d="M278 110 L325 95 L360 125 L375 150"/><path d="M162 225 L210 255 L250 295 L255 335"/><path d="M156 262 L185 300 L200 345"/></g><g fill="none" stroke="#554983" stroke-width="14" stroke-linecap="butt" stroke-linejoin="miter" stroke-miterlimit="10"><path d="M338 185 L355 250 L375 205 L395 250 L412 185"/><path d="M434 218 H496 V198 L484 182 H446 L434 198 V232 L448 250 H496"/><path d="M523 130 V250 M523 182 H565 L581 198 V234 L565 250 H523"/></g></g></g>
<g transform="translate(18.0,24)"><g transform="translate(30,0)"><path d="M215 12 V47" fill="none" stroke="#5f548c" stroke-width="3" stroke-linecap="round"/><polygon points="138,50 168,50 168,250 153,308 138,250" fill="#5f548c"/><circle cx="215" cy="110" r="52" fill="none" stroke="#5f548c" stroke-width="22"/><circle cx="203" cy="100" r="6" fill="#5f548c"/><circle cx="227" cy="100" r="6" fill="#5f548c"/><circle cx="207" cy="122" r="3.5" fill="#5f548c"/><circle cx="223" cy="122" r="3.5" fill="#5f548c"/><g fill="none" stroke="#5f548c" stroke-width="9" stroke-linecap="round" stroke-linejoin="miter" stroke-miterlimit="10"><path d="M138 85 L100 50 L60 90 L50 130"/><path d="M138 120 L85 105 L45 150 L38 195"/><path d="M138 160 L80 165 L45 215 L45 255"/><path d="M138 205 L95 225 L70 275 L72 312"/><path d="M255 62 L290 25 L335 55 L350 95"/><path d="M278 110 L325 95 L360 125 L375 150"/><path d="M162 225 L210 255 L250 295 L255 335"/><path d="M156 262 L185 300 L200 345"/></g><g fill="none" stroke="#5f548c" stroke-width="14" stroke-linecap="butt" stroke-linejoin="miter" stroke-miterlimit="10"><path d="M338 185 L355 250 L375 205 L395 250 L412 185"/><path d="M434 218 H496 V198 L484 182 H446 L434 198 V232 L448 250 H496"/><path d="M523 130 V250 M523 182 H565 L581 198 V234 L565 250 H523"/></g></g></g>
<g transform="translate(16.5,22)"><g transform="translate(30,0)"><path d="M215 12 V47" fill="none" stroke="#695e95" stroke-width="3" stroke-linecap="round"/><polygon points="138,50 168,50 168,250 153,308 138,250" fill="#695e95"/><circle cx="215" cy="110" r="52" fill="none" stroke="#695e95" stroke-width="22"/><circle cx="203" cy="100" r="6" fill="#695e95"/><circle cx="227" cy="100" r="6" fill="#695e95"/><circle cx="207" cy="122" r="3.5" fill="#695e95"/><circle cx="223" cy="122" r="3.5" fill="#695e95"/><g fill="none" stroke="#695e95" stroke-width="9" stroke-linecap="round" stroke-linejoin="miter" stroke-miterlimit="10"><path d="M138 85 L100 50 L60 90 L50 130"/><path d="M138 120 L85 105 L45 150 L38 195"/><path d="M138 160 L80 165 L45 215 L45 255"/><path d="M138 205 L95 225 L70 275 L72 312"/><path d="M255 62 L290 25 L335 55 L350 95"/><path d="M278 110 L325 95 L360 125 L375 150"/><path d="M162 225 L210 255 L250 295 L255 335"/><path d="M156 262 L185 300 L200 345"/></g><g fill="none" stroke="#695e95" stroke-width="14" stroke-linecap="butt" stroke-linejoin="miter" stroke-miterlimit="10"><path d="M338 185 L355 250 L375 205 L395 250 L412 185"/><path d="M434 218 H496 V198 L484 182 H446 L434 198 V232 L448 250 H496"/><path d="M523 130 V250 M523 182 H565 L581 198 V234 L565 250 H523"/></g></g></g>
<g transform="translate(15.0,20)"><g transform="translate(30,0)"><path d="M215 12 V47" fill="none" stroke="#74699e" stroke-width="3" stroke-linecap="round"/><polygon points="138,50 168,50 168,250 153,308 138,250" fill="#74699e"/><circle cx="215" cy="110" r="52" fill="none" stroke="#74699e" stroke-width="22"/><circle cx="203" cy="100" r="6" fill="#74699e"/><circle cx="227" cy="100" r="6" fill="#74699e"/><circle cx="207" cy="122" r="3.5" fill="#74699e"/><circle cx="223" cy="122" r="3.5" fill="#74699e"/><g fill="none" stroke="#74699e" stroke-width="9" stroke-linecap="round" stroke-linejoin="miter" stroke-miterlimit="10"><path d="M138 85 L100 50 L60 90 L50 130"/><path d="M138 120 L85 105 L45 150 L38 195"/><path d="M138 160 L80 165 L45 215 L45 255"/><path d="M138 205 L95 225 L70 275 L72 312"/><path d="M255 62 L290 25 L335 55 L350 95"/><path d="M278 110 L325 95 L360 125 L375 150"/><path d="M162 225 L210 255 L250 295 L255 335"/><path d="M156 262 L185 300 L200 345"/></g><g fill="none" stroke="#74699e" stroke-width="14" stroke-linecap="butt" stroke-linejoin="miter" stroke-miterlimit="10"><path d="M338 185 L355 250 L375 205 L395 250 L412 185"/><path d="M434 218 H496 V198 L484 182 H446 L434 198 V232 L448 250 H496"/><path d="M523 130 V250 M523 182 H565 L581 198 V234 L565 250 H523"/></g></g></g>
<g transform="translate(13.5,18)"><g transform="translate(30,0)"><path d="M215 12 V47" fill="none" stroke="#7e73a7" stroke-width="3" stroke-linecap="round"/><polygon points="138,50 168,50 168,250 153,308 138,250" fill="#7e73a7"/><circle cx="215" cy="110" r="52" fill="none" stroke="#7e73a7" stroke-width="22"/><circle cx="203" cy="100" r="6" fill="#7e73a7"/><circle cx="227" cy="100" r="6" fill="#7e73a7"/><circle cx="207" cy="122" r="3.5" fill="#7e73a7"/><circle cx="223" cy="122" r="3.5" fill="#7e73a7"/><g fill="none" stroke="#7e73a7" stroke-width="9" stroke-linecap="round" stroke-linejoin="miter" stroke-miterlimit="10"><path d="M138 85 L100 50 L60 90 L50 130"/><path d="M138 120 L85 105 L45 150 L38 195"/><path d="M138 160 L80 165 L45 215 L45 255"/><path d="M138 205 L95 225 L70 275 L72 312"/><path d="M255 62 L290 25 L335 55 L350 95"/><path d="M278 110 L325 95 L360 125 L375 150"/><path d="M162 225 L210 255 L250 295 L255 335"/><path d="M156 262 L185 300 L200 345"/></g><g fill="none" stroke="#7e73a7" stroke-width="14" stroke-linecap="butt" stroke-linejoin="miter" stroke-miterlimit="10"><path d="M338 185 L355 250 L375 205 L395 250 L412 185"/><path d="M434 218 H496 V198 L484 182 H446 L434 198 V232 L448 250 H496"/><path d="M523 130 V250 M523 182 H565 L581 198 V234 L565 250 H523"/></g></g></g>
<g transform="translate(12.0,16)"><g transform="translate(30,0)"><path d="M215 12 V47" fill="none" stroke="#887eb0" stroke-width="3" stroke-linecap="round"/><polygon points="138,50 168,50 168,250 153,308 138,250" fill="#887eb0"/><circle cx="215" cy="110" r="52" fill="none" stroke="#887eb0" stroke-width="22"/><circle cx="203" cy="100" r="6" fill="#887eb0"/><circle cx="227" cy="100" r="6" fill="#887eb0"/><circle cx="207" cy="122" r="3.5" fill="#887eb0"/><circle cx="223" cy="122" r="3.5" fill="#887eb0"/><g fill="none" stroke="#887eb0" stroke-width="9" stroke-linecap="round" stroke-linejoin="miter" stroke-miterlimit="10"><path d="M138 85 L100 50 L60 90 L50 130"/><path d="M138 120 L85 105 L45 150 L38 195"/><path d="M138 160 L80 165 L45 215 L45 255"/><path d="M138 205 L95 225 L70 275 L72 312"/><path d="M255 62 L290 25 L335 55 L350 95"/><path d="M278 110 L325 95 L360 125 L375 150"/><path d="M162 225 L210 255 L250 295 L255 335"/><path d="M156 262 L185 300 L200 345"/></g><g fill="none" stroke="#887eb0" stroke-width="14" stroke-linecap="butt" stroke-linejoin="miter" stroke-miterlimit="10"><path d="M338 185 L355 250 L375 205 L395 250 L412 185"/><path d="M434 218 H496 V198 L484 182 H446 L434 198 V232 L448 250 H496"/><path d="M523 130 V250 M523 182 H565 L581 198 V234 L565 250 H523"/></g></g></g>
<g transform="translate(10.5,14)"><g transform="translate(30,0)"><path d="M215 12 V47" fill="none" stroke="#9288b8" stroke-width="3" stroke-linecap="round"/><polygon points="138,50 168,50 168,250 153,308 138,250" fill="#9288b8"/><circle cx="215" cy="110" r="52" fill="none" stroke="#9288b8" stroke-width="22"/><circle cx="203" cy="100" r="6" fill="#9288b8"/><circle cx="227" cy="100" r="6" fill="#9288b8"/><circle cx="207" cy="122" r="3.5" fill="#9288b8"/><circle cx="223" cy="122" r="3.5" fill="#9288b8"/><g fill="none" stroke="#9288b8" stroke-width="9" stroke-linecap="round" stroke-linejoin="miter" stroke-miterlimit="10"><path d="M138 85 L100 50 L60 90 L50 130"/><path d="M138 120 L85 105 L45 150 L38 195"/><path d="M138 160 L80 165 L45 215 L45 255"/><path d="M138 205 L95 225 L70 275 L72 312"/><path d="M255 62 L290 25 L335 55 L350 95"/><path d="M278 110 L325 95 L360 125 L375 150"/><path d="M162 225 L210 255 L250 295 L255 335"/><path d="M156 262 L185 300 L200 345"/></g><g fill="none" stroke="#9288b8" stroke-width="14" stroke-linecap="butt" stroke-linejoin="miter" stroke-miterlimit="10"><path d="M338 185 L355 250 L375 205 L395 250 L412 185"/><path d="M434 218 H496 V198 L484 182 H446 L434 198 V232 L448 250 H496"/><path d="M523 130 V250 M523 182 H565 L581 198 V234 L565 250 H523"/></g></g></g>
<g transform="translate(9.0,12)"><g transform="translate(30,0)"><path d="M215 12 V47" fill="none" stroke="#9c93c1" stroke-width="3" stroke-linecap="round"/><polygon points="138,50 168,50 168,250 153,308 138,250" fill="#9c93c1"/><circle cx="215" cy="110" r="52" fill="none" stroke="#9c93c1" stroke-width="22"/><circle cx="203" cy="100" r="6" fill="#9c93c1"/><circle cx="227" cy="100" r="6" fill="#9c93c1"/><circle cx="207" cy="122" r="3.5" fill="#9c93c1"/><circle cx="223" cy="122" r="3.5" fill="#9c93c1"/><g fill="none" stroke="#9c93c1" stroke-width="9" stroke-linecap="round" stroke-linejoin="miter" stroke-miterlimit="10"><path d="M138 85 L100 50 L60 90 L50 130"/><path d="M138 120 L85 105 L45 150 L38 195"/><path d="M138 160 L80 165 L45 215 L45 255"/><path d="M138 205 L95 225 L70 275 L72 312"/><path d="M255 62 L290 25 L335 55 L350 95"/><path d="M278 110 L325 95 L360 125 L375 150"/><path d="M162 225 L210 255 L250 295 L255 335"/><path d="M156 262 L185 300 L200 345"/></g><g fill="none" stroke="#9c93c1" stroke-width="14" stroke-linecap="butt" stroke-linejoin="miter" stroke-miterlimit="10"><path d="M338 185 L355 250 L375 205 L395 250 L412 185"/><path d="M434 218 H496 V198 L484 182 H446 L434 198 V232 L448 250 H496"/><path d="M523 130 V250 M523 182 H565 L581 198 V234 L565 250 H523"/></g></g></g>
<g transform="translate(7.5,10)"><g transform="translate(30,0)"><path d="M215 12 V47" fill="none" stroke="#a69dca" stroke-width="3" stroke-linecap="round"/><polygon points="138,50 168,50 168,250 153,308 138,250" fill="#a69dca"/><circle cx="215" cy="110" r="52" fill="none" stroke="#a69dca" stroke-width="22"/><circle cx="203" cy="100" r="6" fill="#a69dca"/><circle cx="227" cy="100" r="6" fill="#a69dca"/><circle cx="207" cy="122" r="3.5" fill="#a69dca"/><circle cx="223" cy="122" r="3.5" fill="#a69dca"/><g fill="none" stroke="#a69dca" stroke-width="9" stroke-linecap="round" stroke-linejoin="miter" stroke-miterlimit="10"><path d="M138 85 L100 50 L60 90 L50 130"/><path d="M138 120 L85 105 L45 150 L38 195"/><path d="M138 160 L80 165 L45 215 L45 255"/><path d="M138 205 L95 225 L70 275 L72 312"/><path d="M255 62 L290 25 L335 55 L350 95"/><path d="M278 110 L325 95 L360 125 L375 150"/><path d="M162 225 L210 255 L250 295 L255 335"/><path d="M156 262 L185 300 L200 345"/></g><g fill="none" stroke="#a69dca" stroke-width="14" stroke-linecap="butt" stroke-linejoin="miter" stroke-miterlimit="10"><path d="M338 185 L355 250 L375 205 L395 250 L412 185"/><path d="M434 218 H496 V198 L484 182 H446 L434 198 V232 L448 250 H496"/><path d="M523 130 V250 M523 182 H565 L581 198 V234 L565 250 H523"/></g></g></g>
<g transform="translate(6.0,8)"><g transform="translate(30,0)"><path d="M215 12 V47" fill="none" stroke="#b1a8d3" stroke-width="3" stroke-linecap="round"/><polygon points="138,50 168,50 168,250 153,308 138,250" fill="#b1a8d3"/><circle cx="215" cy="110" r="52" fill="none" stroke="#b1a8d3" stroke-width="22"/><circle cx="203" cy="100" r="6" fill="#b1a8d3"/><circle cx="227" cy="100" r="6" fill="#b1a8d3"/><circle cx="207" cy="122" r="3.5" fill="#b1a8d3"/><circle cx="223" cy="122" r="3.5" fill="#b1a8d3"/><g fill="none" stroke="#b1a8d3" stroke-width="9" stroke-linecap="round" stroke-linejoin="miter" stroke-miterlimit="10"><path d="M138 85 L100 50 L60 90 L50 130"/><path d="M138 120 L85 105 L45 150 L38 195"/><path d="M138 160 L80 165 L45 215 L45 255"/><path d="M138 205 L95 225 L70 275 L72 312"/><path d="M255 62 L290 25 L335 55 L350 95"/><path d="M278 110 L325 95 L360 125 L375 150"/><path d="M162 225 L210 255 L250 295 L255 335"/><path d="M156 262 L185 300 L200 345"/></g><g fill="none" stroke="#b1a8d3" stroke-width="14" stroke-linecap="butt" stroke-linejoin="miter" stroke-miterlimit="10"><path d="M338 185 L355 250 L375 205 L395 250 L412 185"/><path d="M434 218 H496 V198 L484 182 H446 L434 198 V232 L448 250 H496"/><path d="M523 130 V250 M523 182 H565 L581 198 V234 L565 250 H523"/></g></g></g>
<g transform="translate(4.5,6)"><g transform="translate(30,0)"><path d="M215 12 V47" fill="none" stroke="#bbb2dc" stroke-width="3" stroke-linecap="round"/><polygon points="138,50 168,50 168,250 153,308 138,250" fill="#bbb2dc"/><circle cx="215" cy="110" r="52" fill="none" stroke="#bbb2dc" stroke-width="22"/><circle cx="203" cy="100" r="6" fill="#bbb2dc"/><circle cx="227" cy="100" r="6" fill="#bbb2dc"/><circle cx="207" cy="122" r="3.5" fill="#bbb2dc"/><circle cx="223" cy="122" r="3.5" fill="#bbb2dc"/><g fill="none" stroke="#bbb2dc" stroke-width="9" stroke-linecap="round" stroke-linejoin="miter" stroke-miterlimit="10"><path d="M138 85 L100 50 L60 90 L50 130"/><path d="M138 120 L85 105 L45 150 L38 195"/><path d="M138 160 L80 165 L45 215 L45 255"/><path d="M138 205 L95 225 L70 275 L72 312"/><path d="M255 62 L290 25 L335 55 L350 95"/><path d="M278 110 L325 95 L360 125 L375 150"/><path d="M162 225 L210 255 L250 295 L255 335"/><path d="M156 262 L185 300 L200 345"/></g><g fill="none" stroke="#bbb2dc" stroke-width="14" stroke-linecap="butt" stroke-linejoin="miter" stroke-miterlimit="10"><path d="M338 185 L355 250 L375 205 L395 250 L412 185"/><path d="M434 218 H496 V198 L484 182 H446 L434 198 V232 L448 250 H496"/><path d="M523 130 V250 M523 182 H565 L581 198 V234 L565 250 H523"/></g></g></g>
<g transform="translate(3.0,4)"><g transform="translate(30,0)"><path d="M215 12 V47" fill="none" stroke="#c5bde5" stroke-width="3" stroke-linecap="round"/><polygon points="138,50 168,50 168,250 153,308 138,250" fill="#c5bde5"/><circle cx="215" cy="110" r="52" fill="none" stroke="#c5bde5" stroke-width="22"/><circle cx="203" cy="100" r="6" fill="#c5bde5"/><circle cx="227" cy="100" r="6" fill="#c5bde5"/><circle cx="207" cy="122" r="3.5" fill="#c5bde5"/><circle cx="223" cy="122" r="3.5" fill="#c5bde5"/><g fill="none" stroke="#c5bde5" stroke-width="9" stroke-linecap="round" stroke-linejoin="miter" stroke-miterlimit="10"><path d="M138 85 L100 50 L60 90 L50 130"/><path d="M138 120 L85 105 L45 150 L38 195"/><path d="M138 160 L80 165 L45 215 L45 255"/><path d="M138 205 L95 225 L70 275 L72 312"/><path d="M255 62 L290 25 L335 55 L350 95"/><path d="M278 110 L325 95 L360 125 L375 150"/><path d="M162 225 L210 255 L250 295 L255 335"/><path d="M156 262 L185 300 L200 345"/></g><g fill="none" stroke="#c5bde5" stroke-width="14" stroke-linecap="butt" stroke-linejoin="miter" stroke-miterlimit="10"><path d="M338 185 L355 250 L375 205 L395 250 L412 185"/><path d="M434 218 H496 V198 L484 182 H446 L434 198 V232 L448 250 H496"/><path d="M523 130 V250 M523 182 H565 L581 198 V234 L565 250 H523"/></g></g></g>
<g transform="translate(1.5,2)"><g transform="translate(30,0)"><path d="M215 12 V47" fill="none" stroke="#cfc7ee" stroke-width="3" stroke-linecap="round"/><polygon points="138,50 168,50 168,250 153,308 138,250" fill="#cfc7ee"/><circle cx="215" cy="110" r="52" fill="none" stroke="#cfc7ee" stroke-width="22"/><circle cx="203" cy="100" r="6" fill="#cfc7ee"/><circle cx="227" cy="100" r="6" fill="#cfc7ee"/><circle cx="207" cy="122" r="3.5" fill="#cfc7ee"/><circle cx="223" cy="122" r="3.5" fill="#cfc7ee"/><g fill="none" stroke="#cfc7ee" stroke-width="9" stroke-linecap="round" stroke-linejoin="miter" stroke-miterlimit="10"><path d="M138 85 L100 50 L60 90 L50 130"/><path d="M138 120 L85 105 L45 150 L38 195"/><path d="M138 160 L80 165 L45 215 L45 255"/><path d="M138 205 L95 225 L70 275 L72 312"/><path d="M255 62 L290 25 L335 55 L350 95"/><path d="M278 110 L325 95 L360 125 L375 150"/><path d="M162 225 L210 255 L250 295 L255 335"/><path d="M156 262 L185 300 L200 345"/></g><g fill="none" stroke="#cfc7ee" stroke-width="14" stroke-linecap="butt" stroke-linejoin="miter" stroke-miterlimit="10"><path d="M338 185 L355 250 L375 205 L395 250 L412 185"/><path d="M434 218 H496 V198 L484 182 H446 L434 198 V232 L448 250 H496"/><path d="M523 130 V250 M523 182 H565 L581 198 V234 L565 250 H523"/></g></g></g>
<g transform="translate(30,0)"><path d="M215 12 V47" fill="none" stroke="#ffffff" stroke-width="3" stroke-linecap="round"/><polygon points="138,50 168,50 168,250 153,308 138,250" fill="#ffffff"/><circle cx="215" cy="110" r="52" fill="none" stroke="#ffffff" stroke-width="22"/><circle cx="203" cy="100" r="6" fill="#ffffff"/><circle cx="227" cy="100" r="6" fill="#ffffff"/><circle cx="207" cy="122" r="3.5" fill="#ffffff"/><circle cx="223" cy="122" r="3.5" fill="#ffffff"/><g fill="none" stroke="#ffffff" stroke-width="9" stroke-linecap="round" stroke-linejoin="miter" stroke-miterlimit="10"><path d="M138 85 L100 50 L60 90 L50 130"/><path d="M138 120 L85 105 L45 150 L38 195"/><path d="M138 160 L80 165 L45 215 L45 255"/><path d="M138 205 L95 225 L70 275 L72 312"/><path d="M255 62 L290 25 L335 55 L350 95"/><path d="M278 110 L325 95 L360 125 L375 150"/><path d="M162 225 L210 255 L250 295 L255 335"/><path d="M156 262 L185 300 L200 345"/></g><g fill="none" stroke="#ffffff" stroke-width="14" stroke-linecap="butt" stroke-linejoin="miter" stroke-miterlimit="10"><path d="M338 185 L355 250 L375 205 L395 250 L412 185"/><path d="M434 218 H496 V198 L484 182 H446 L434 198 V232 L448 250 H496"/><path d="M523 130 V250 M523 182 H565 L581 198 V234 L565 250 H523"/></g></g>
</svg>