<svg xmlns="http://www.w3.org/2000/svg" width="1360" height="800" viewBox="0 0 680 400" xmlns:c2pa="http://c2pa.org/manifest"><metadata><c2pa:manifest>AAAWgmp1bWIAAAAeanVtZGMycGEAEQAQgAAAqgA4m3EDYzJwYQAAABZcanVtYgAAAEdqdW1kYzJtYQARABCAAACqADibcQN1cm46YzJwYTo4YjhiNjdhNi1kMzU4LTRmMWMtOTVlMC1jMWMyZThmZTEwMTcAAAADl2p1bWIAAAApanVtZGMyYXMAEQAQgAAAqgA4m3EDYzJwYS5hc3NlcnRpb25zAAAAALxqdW1iAAAARGp1bWRjYm9yABEAEIAAAKoAOJtxE2MycGEuaW5ncmVkaWVudC52MwAAAAAYYzJzaLvrMxUKQ154YkN2CBHUYf0AAABwY2JvcqNpZGM6Zm9ybWF0bWltYWdlL3N2Zyt4bWxqaW5zdGFuY2VJRHgseG1wOmlpZDo3NjE2OGQ5OS1mNzg0LTQ5MDQtOTBhMi0zZjk2MDUwMzE3OWZscmVsYXRpb25zaGlwaHBhcmVudE9mAAAB4mp1bWIAAABBanVtZGNib3IAEQAQgAAAqgA4m3ETYzJwYS5hY3Rpb25zLnYyAAAAABhjMnNo9D9smlT2LEsQeMWewTNMUQAAAZljYm9yomdhY3Rpb25zgqJmYWN0aW9ua2MycGEub3BlbmVkanBhcmFtZXRlcnOha2luZ3JlZGllbnRzgaJjdXJseC1zZWxmI2p1bWJmPWMycGEuYXNzZXJ0aW9ucy9jMnBhLmluZ3JlZGllbnQudjNkaGFzaFggzsguD+nF7gs19/RphWtkb0oTIYemoQ+HXNoJ5+a6Y3qkZmFjdGlvbngdY29tLmFudGhyb3BpYy5jbGF1ZGUucHJvdmlkZWRqcGFyYW1ldGVyc6F4H2NvbS5hbnRocm9waWMub3JpZ2luLWNvbmZpZGVuY2VndW5rbm93bmtkZXNjcmlwdGlvbnhmQ2xhdWRlIHByb3ZpZGVkIHRoaXMgZmlsZSBhdCB0aGUgcmVxdWVzdCBvZiBhIHVzZXIgYW5kIG1heSBoYXZlIGNyZWF0ZWQgb3IgbW9kaWZpZWQgdGhlIGZpbGUgY29udGVudHMubXNvZnR3YXJlQWdlbnShZG5hbWVmQ2xhdWRlcmFsbEFjdGlvbnNJbmNsdWRlZPUAAADIanVtYgAAAEBqdW1kY2JvcgARABCAAACqADibcRNjMnBhLmhhc2guZGF0YQAAAAAYYzJzaKu9o7kgeo89YG+SpTw1hFAAAACAY2JvcqVjYWxnZnNoYTI1NmNwYWRNAAAAAAAAAAAAAAAAAGRoYXNoWCD9Siq3ejZ1p6ghETQ8UvnVTjkG1a4O338919hyMAxd/GRuYW1lbmp1bWJmIG1hbmlmZXN0amV4Y2x1c2lvbnOBomVzdGFydBiXZmxlbmd0aBkeBAAAAj5qdW1iAAAAJ2p1bWRjMmNsABEAEIAAAKoAOJtxA2MycGEuY2xhaW0udjIAAAACD2Nib3KlY2FsZ2ZzaGEyNTZpc2lnbmF0dXJleE1zZWxmI2p1bWJmPS9jMnBhL3VybjpjMnBhOjhiOGI2N2E2LWQzNTgtNGYxYy05NWUwLWMxYzJlOGZlMTAxNy9jMnBhLnNpZ25hdHVyZWppbnN0YW5jZUlEeCx4bXA6aWlkOjA0MzE3OGM3LTNjOWYtNDBhNy05ZTFkLTY2ZDkwODdkMzBkN3JjcmVhdGVkX2Fzc2VydGlvbnODomN1cmx4LXNlbGYjanVtYmY9YzJwYS5hc3NlcnRpb25zL2MycGEuaW5ncmVkaWVudC52M2RoYXNoWCDOyC4P6cXuCzX39GmFa2RvShMhh6ahD4dc2gnn5rpjeqJjdXJseCpzZWxmI2p1bWJmPWMycGEuYXNzZXJ0aW9ucy9jMnBhLmFjdGlvbnMudjJkaGFzaFgga/JYttI5ukdr5kZbXDuigR+KWNcH/5WjDQ19JZz6k8yiY3VybHgpc2VsZiNqdW1iZj1jMnBhLmFzc2VydGlvbnMvYzJwYS5oYXNoLmRhdGFkaGFzaFggetnz9aJzd7MeFlAQ0ZY1mqDR0NiJIGQW7V2nMeYTy9x0Y2xhaW1fZ2VuZXJhdG9yX2luZm+jZG5hbWVvQW50aHJvcGljIEZpbGVzZ3ZlcnNpb25lMS4wLjBrc3BlY1ZlcnNpb25lMi40LjAAABA4anVtYgAAAChqdW1kYzJjcwARABCAAACqADibcQNjMnBhLnNpZ25hdHVyZQAAABAIY2JvctKEWQISogEmGCFZAgowggIGMIIBjaADAgECAhRA5aAK7sI50L64g/oGQgU9Z1UTADAKBggqhkjOPQQDAzBJMRcwFQYDVQQKEw5BbnRocm9waWMsIFBCQzEuMCwGA1UEAxMlQW50aHJvcGljIENvbnRlbnQgQ3JlZGVudGlhbHMgUm9vdCBDQTAeFw0yNjA4MDcxODQzNTZaFw0yODA4MDYxOTQzNTZaMEQxFzAVBgNVBAoTDkFudGhyb3BpYywgUEJDMSkwJwYDVQQDEyBBbnRocm9waWMgQ2xhdWRlIENvbnRlbnQgU2lnbmluZzBZMBMGByqGSM49AgEGCCqGSM49AwEHA0IABJh6CmvLUBgFFNU0vUKlOVtE6djd17L5SuwX0LemFisBM3dkd/3cyjxFA3Qo5S46fX0/ihY0VZ7mfb9KF703t5OjWDBWMA4GA1UdDwEB/wQEAwIHgDAVBgNVHSUEDjAMBgorBgEEAYPoXgIBMAwGA1UdEwEB/wQCMAAwHwYDVR0jBBgwFoAUzlHiBIFOZFsj+OPEz5o+nMHXXMIwCgYIKoZIzj0EAwMDZwAwZAIwMXMdFJ4BetLLVY7ORuE9noqbbAZOZn/aArXyTwFAZfKrPzxF2vPoJNf1+UCdg1XGAjBwX1zd9WGqYkqmL5SFqw1QySjr1zJfpJM9+1rdDwSPLMOPOjKuiXjoU/pUUeG9RwmhY3BhZFkNngAAAAAAAAAAAAAAAAAAAAAAAAAAAAAAAAAAAAAAAAAAAAAAAAAAAAAAAAAAAAAAAAAAAAAAAAAAAAAAAAAAAAAAAAAAAAAAAAAAAAAAAAAAAAAAAAAAAAAAAAAAAAAAAAAAAAAAAAAAAAAAAAAAAAAAAAAAAAAAAAAAAAAAAAAAAAAAAAAAAAAAAAAAAAAAAAAAAAAAAAAAAAAAAAAAAAAAAAAAAAAAAAAAAAAAAAAAAAAAAAAAAAAAAAAAAAAAAAAAAAAAAAAAAAAAAAAAAAAAAAAAAAAAAAAAAAAAAAAAAAAAAAAAAAAAAAAAAAAAAAAAAAAAAAAAAAAAAAAAAAAAAAAAAAAAAAAAAAAAAAAAAAAAAAAAAAAAAAAAAAAAAAAAAAAAAAAAAAAAAAAAAAAAAAAAAAAAAAAAAAAAAAAAAAAAAAAAAAAAAAAAAAAAAAAAAAAAAAAAAAAAAAAAAAAAAAAAAAAAAAAAAAAAAAAAAAAAAAAAAAAAAAAAAAAAAAAAAAAAAAAAAAAAAAAAAAAAAAAAAAAAAAAAAAAAAAAAAAAAAAAAAAAAAAAAAAAAAAAAAAAAAAAAAAAAAAAAAAAAAAAAAAAAAAAAAAAAAAAAAAAAAAAAAAAAAAAAAAAAAAAAAAAAAAAAAAAAAAAAAAAAAAAAAAAAAAAAAAAAAAAAAAAAAAAAAAAAAAAAAAAAAAAAAAAAAAAAAAAAAAAAAAAAAAAAAAAAAAAAAAAAAAAAAAAAAAAAAAAAAAAAAAAAAAAAAAAAAAAAAAAAAAAAAAAAAAAAAAAAAAAAAAAAAAAAAAAAAAAAAAAAAAAAAAAAAAAAAAAAAAAAAAAAAAAAAAAAAAAAAAAAAAAAAAAAAAAAAAAAAAAAAAAAAAAAAAAAAAAAAAAAAAAAAAAAAAAAAAAAAAAAAAAAAAAAAAAAAAAAAAAAAAAAAAAAAAAAAAAAAAAAAAAAAAAAAAAAAAAAAAAAAAAAAAAAAAAAAAAAAAAAAAAAAAAAAAAAAAAAAAAAAAAAAAAAAAAAAAAAAAAAAAAAAAAAAAAAAAAAAAAAAAAAAAAAAAAAAAAAAAAAAAAAAAAAAAAAAAAAAAAAAAAAAAAAAAAAAAAAAAAAAAAAAAAAAAAAAAAAAAAAAAAAAAAAAAAAAAAAAAAAAAAAAAAAAAAAAAAAAAAAAAAAAAAAAAAAAAAAAAAAAAAAAAAAAAAAAAAAAAAAAAAAAAAAAAAAAAAAAAAAAAAAAAAAAAAAAAAAAAAAAAAAAAAAAAAAAAAAAAAAAAAAAAAAAAAAAAAAAAAAAAAAAAAAAAAAAAAAAAAAAAAAAAAAAAAAAAAAAAAAAAAAAAAAAAAAAAAAAAAAAAAAAAAAAAAAAAAAAAAAAAAAAAAAAAAAAAAAAAAAAAAAAAAAAAAAAAAAAAAAAAAAAAAAAAAAAAAAAAAAAAAAAAAAAAAAAAAAAAAAAAAAAAAAAAAAAAAAAAAAAAAAAAAAAAAAAAAAAAAAAAAAAAAAAAAAAAAAAAAAAAAAAAAAAAAAAAAAAAAAAAAAAAAAAAAAAAAAAAAAAAAAAAAAAAAAAAAAAAAAAAAAAAAAAAAAAAAAAAAAAAAAAAAAAAAAAAAAAAAAAAAAAAAAAAAAAAAAAAAAAAAAAAAAAAAAAAAAAAAAAAAAAAAAAAAAAAAAAAAAAAAAAAAAAAAAAAAAAAAAAAAAAAAAAAAAAAAAAAAAAAAAAAAAAAAAAAAAAAAAAAAAAAAAAAAAAAAAAAAAAAAAAAAAAAAAAAAAAAAAAAAAAAAAAAAAAAAAAAAAAAAAAAAAAAAAAAAAAAAAAAAAAAAAAAAAAAAAAAAAAAAAAAAAAAAAAAAAAAAAAAAAAAAAAAAAAAAAAAAAAAAAAAAAAAAAAAAAAAAAAAAAAAAAAAAAAAAAAAAAAAAAAAAAAAAAAAAAAAAAAAAAAAAAAAAAAAAAAAAAAAAAAAAAAAAAAAAAAAAAAAAAAAAAAAAAAAAAAAAAAAAAAAAAAAAAAAAAAAAAAAAAAAAAAAAAAAAAAAAAAAAAAAAAAAAAAAAAAAAAAAAAAAAAAAAAAAAAAAAAAAAAAAAAAAAAAAAAAAAAAAAAAAAAAAAAAAAAAAAAAAAAAAAAAAAAAAAAAAAAAAAAAAAAAAAAAAAAAAAAAAAAAAAAAAAAAAAAAAAAAAAAAAAAAAAAAAAAAAAAAAAAAAAAAAAAAAAAAAAAAAAAAAAAAAAAAAAAAAAAAAAAAAAAAAAAAAAAAAAAAAAAAAAAAAAAAAAAAAAAAAAAAAAAAAAAAAAAAAAAAAAAAAAAAAAAAAAAAAAAAAAAAAAAAAAAAAAAAAAAAAAAAAAAAAAAAAAAAAAAAAAAAAAAAAAAAAAAAAAAAAAAAAAAAAAAAAAAAAAAAAAAAAAAAAAAAAAAAAAAAAAAAAAAAAAAAAAAAAAAAAAAAAAAAAAAAAAAAAAAAAAAAAAAAAAAAAAAAAAAAAAAAAAAAAAAAAAAAAAAAAAAAAAAAAAAAAAAAAAAAAAAAAAAAAAAAAAAAAAAAAAAAAAAAAAAAAAAAAAAAAAAAAAAAAAAAAAAAAAAAAAAAAAAAAAAAAAAAAAAAAAAAAAAAAAAAAAAAAAAAAAAAAAAAAAAAAAAAAAAAAAAAAAAAAAAAAAAAAAAAAAAAAAAAAAAAAAAAAAAAAAAAAAAAAAAAAAAAAAAAAAAAAAAAAAAAAAAAAAAAAAAAAAAAAAAAAAAAAAAAAAAAAAAAAAAAAAAAAAAAAAAAAAAAAAAAAAAAAAAAAAAAAAAAAAAAAAAAAAAAAAAAAAAAAAAAAAAAAAAAAAAAAAAAAAAAAAAAAAAAAAAAAAAAAAAAAAAAAAAAAAAAAAAAAAAAAAAAAAAAAAAAAAAAAAAAAAAAAAAAAAAAAAAAAAAAAAAAAAAAAAAAAAAAAAAAAAAAAAAAAAAAAAAAAAAAAAAAAAAAAAAAAAAAAAAAAAAAAAAAAAAAAAAAAAAAAAAAAAAAAAAAAAAAAAAAAAAAAAAAAAAAAAAAAAAAAAAAAAAAAAAAAAAAAAAAAAAAAAAAAAAAAAAAAAAAAAAAAAAAAAAAAAAAAAAAAAAAAAAAAAAAAAAAAAAAAAAAAAAAAAAAAAAAAAAAAAAAAAAAAAAAAAAAAAAAAAAAAAAAAAAAAAAAAAAAAAAAAAAAAAAAAAAAAAAAAAAAAAAAAAAAAAAAAAAAAAAAAAAAAAAAAAAAAAAAAAAAAAAAAAAAAAAAAAAAAAAAAAAAAAAAAAAAAAAAAAAAAAAAAAAAAAAAAAAAAAAAAAAAAAAAAAAAAAAAAAAAAAAAAAAAAAAAAAAAAAAAAAAAAAAAAAAAAAAAAAAAAAAAAAAAAAAAAAAAAAAAAAAAAAAAAAAAAAAAAAAAAAAAAAAAAAAAAAAAAAAAAAAAAAAAAAAAAAAAAAAAAAAAAAAAAAAAAAAAAAAAAAAAAAAAAAAAAAAAAAAAAAAAAAAAAAAAAAAAAAAAAAAAAAAAAAAAAAAAAAAAAAAAAAAAAAAAAAAAAAAAAAAAAAAAAAAAAAAAAAAAAAAAAAAAAAAAAAAAAAAAAAAAAAAAAAAAAAAAAAAAAAAAAAAAAAAAAAAAAAAAAAAAAAAAAAAAAAAAAAAAAAAAAAAAAAAAAAAAAAAAAAAAAAAAAAAAAAAAAAAAAAAAAAAAAAAAAAAAAAAAAAAAAAAAAAAAAAAAAAAAAAAAAAAAAAAAAAAAAAAAAAAAAAAAAAAAAAAAAAAAAAAAAAAAAAAAAAAAAAAAAAAAAAAAAAAAAAAAAAAAAAAAAAAAAAAAAAAAAAAAAAAAAAAAAAAAAAAAAAAAAAAAAAAAAAAAAAAAAAAAAAAAAAAAAAAAAAAAAAAAAAAAAAAAAAAAAAAAAAAAAAAAAAAAAAAAAAAAAAAAAAAAAAAAAAAAAAAAAAAAAAAAAAAAAAAAAAAAAAAAAAAAAAAAAAAAAAAAAAAAAAAAAAAAAAAAAAAAAAAAAAAAAAAAAAAAAAAAAAAAAAAAAAAAAAAAAAAAAAAAAAAAAAAAAAAAAAAAAAAAAAAAAAAAAAAAAAAAAAAAAAAAAAAAAAAAAAAAAAAAAAAAAAAAAAAAAAAAAAAAAAAAAAAAAAAAAAAAAAAAAAAAAAAAAAAAAAAAAAAAAAAAAAAAAAAAAAAAAAAAAAAAAAAAAAAAAAAAAAAAAAAAAAAAAAAAAAAAAAAAAAAAAAAAAAAAAAAAAAAAAAAAAAAAAAAAAAAAAAAAAAAAAAAAAAAAAAAAAAAAAAAAAAAAAAAAAAAAAAAAAAAAAAAAAAAAAAAAAAAAAAAAAAAAAAAAAAAAAAAAAAAAAAAAAAAAAAAAAAAAAAAAAAAAAAAAAAAAAAAAAAAAAAAAAAAAAAAAAAAAAAAAAAAAAAAAAAAAAAAAAAAAAAAAAAAAAAAAAAAAAAAAAAAAAAAAAAAAAAAAAAAAAAAAAAAAAAAAAAAAAAAAAAAAAAAAAAAAAAAAAAAAAAAAAAAAAAAAAAAAAAAAAAAAAAAAAAAAAAAAAAAAAAAAAAAAAAAAAAAAAAAAAAAAAAAAAAAAAAAAAAAAAAAAAAAAAAAAAAAAAAAAAAAAAAAAAAAAAAAAAAAAAAAAAAAAAAAAAAAAAAAAAAAAPZYQLa1mLwyi1SKVY8MLrpDJHWDcJNQrz8ImHMDy9+y8JG7L9GzrGsEI7k0pL/GpFSy+vJ1f9eABWf3Ptm+uEoOs1A=</c2pa:manifest></metadata><rect width="680" height="400" fill="#6f9f98"/>
<g transform="translate(36,50)" opacity="0.2"><g transform="translate(30,0)"><path d="M215 12 V47" fill="none" stroke="#17302c" stroke-width="3" stroke-linecap="round"/><polygon points="138,50 168,50 168,250 153,308 138,250" fill="#17302c"/><circle cx="215" cy="110" r="52" fill="none" stroke="#17302c" stroke-width="22"/><circle cx="203" cy="100" r="6" fill="#17302c"/><circle cx="227" cy="100" r="6" fill="#17302c"/><circle cx="207" cy="122" r="3.5" fill="#17302c"/><circle cx="223" cy="122" r="3.5" fill="#17302c"/><g fill="none" stroke="#17302c" stroke-width="9" stroke-linecap="round" stroke-linejoin="miter" stroke-miterlimit="10"><path d="M138 85 L100 50 L60 90 L50 130"/><path d="M138 120 L85 105 L45 150 L38 195"/><path d="M138 160 L80 165 L45 215 L45 255"/><path d="M138 205 L95 225 L70 275 L72 312"/><path d="M255 62 L290 25 L335 55 L350 95"/><path d="M278 110 L325 95 L360 125 L375 150"/><path d="M162 225 L210 255 L250 295 L255 335"/><path d="M156 262 L185 300 L200 345"/></g><g fill="none" stroke="#17302c" stroke-width="14" stroke-linecap="butt" stroke-linejoin="miter" stroke-miterlimit="10"><path d="M338 185 L355 250 L375 205 L395 250 L412 185"/><path d="M434 218 H496 V198 L484 182 H446 L434 198 V232 L448 250 H496"/><path d="M523 130 V250 M523 182 H565 L581 198 V234 L565 250 H523"/></g></g></g>
<g transform="translate(21.0,28)"><g transform="translate(30,0)"><path d="M215 12 V47" fill="none" stroke="#264f49" stroke-width="3" stroke-linecap="round"/><polygon points="138,50 168,50 168,250 153,308 138,250" fill="#264f49"/><circle cx="215" cy="110" r="52" fill="none" stroke="#264f49" stroke-width="22"/><circle cx="203" cy="100" r="6" fill="#264f49"/><circle cx="227" cy="100" r="6" fill="#264f49"/><circle cx="207" cy="122" r="3.5" fill="#264f49"/><circle cx="223" cy="122" r="3.5" fill="#264f49"/><g fill="none" stroke="#264f49" stroke-width="9" stroke-linecap="round" stroke-linejoin="miter" stroke-miterlimit="10"><path d="M138 85 L100 50 L60 90 L50 130"/><path d="M138 120 L85 105 L45 150 L38 195"/><path d="M138 160 L80 165 L45 215 L45 255"/><path d="M138 205 L95 225 L70 275 L72 312"/><path d="M255 62 L290 25 L335 55 L350 95"/><path d="M278 110 L325 95 L360 125 L375 150"/><path d="M162 225 L210 255 L250 295 L255 335"/><path d="M156 262 L185 300 L200 345"/></g><g fill="none" stroke="#264f49" stroke-width="14" stroke-linecap="butt" stroke-linejoin="miter" stroke-miterlimit="10"><path d="M338 185 L355 250 L375 205 L395 250 L412 185"/><path d="M434 218 H496 V198 L484 182 H446 L434 198 V232 L448 250 H496"/><path d="M523 130 V250 M523 182 H565 L581 198 V234 L565 250 H523"/></g></g></g>
<g transform="translate(19.5,26)"><g transform="translate(30,0)"><path d="M215 12 V47" fill="none" stroke="#305852" stroke-width="3" stroke-linecap="round"/><polygon points="138,50 168,50 168,250 153,308 138,250" fill="#305852"/><circle cx="215" cy="110" r="52" fill="none" stroke="#305852" stroke-width="22"/><circle cx="203" cy="100" r="6" fill="#305852"/><circle cx="227" cy="100" r="6" fill="#305852"/><circle cx="207" cy="122" r="3.5" fill="#305852"/><circle cx="223" cy="122" r="3.5" fill="#305852"/><g fill="none" stroke="#305852" stroke-width="9" stroke-linecap="round" stroke-linejoin="miter" stroke-miterlimit="10"><path d="M138 85 L100 50 L60 90 L50 130"/><path d="M138 120 L85 105 L45 150 L38 195"/><path d="M138 160 L80 165 L45 215 L45 255"/><path d="M138 205 L95 225 L70 275 L72 312"/><path d="M255 62 L290 25 L335 55 L350 95"/><path d="M278 110 L325 95 L360 125 L375 150"/><path d="M162 225 L210 255 L250 295 L255 335"/><path d="M156 262 L185 300 L200 345"/></g><g fill="none" stroke="#305852" stroke-width="14" stroke-linecap="butt" stroke-linejoin="miter" stroke-miterlimit="10"><path d="M338 185 L355 250 L375 205 L395 250 L412 185"/><path d="M434 218 H496 V198 L484 182 H446 L434 198 V232 L448 250 H496"/><path d="M523 130 V250 M523 182 H565 L581 198 V234 L565 250 H523"/></g></g></g>
<g transform="translate(18.0,24)"><g transform="translate(30,0)"><path d="M215 12 V47" fill="none" stroke="#3a615b" stroke-width="3" stroke-linecap="round"/><polygon points="138,50 168,50 168,250 153,308 138,250" fill="#3a615b"/><circle cx="215" cy="110" r="52" fill="none" stroke="#3a615b" stroke-width="22"/><circle cx="203" cy="100" r="6" fill="#3a615b"/><circle cx="227" cy="100" r="6" fill="#3a615b"/><circle cx="207" cy="122" r="3.5" fill="#3a615b"/><circle cx="223" cy="122" r="3.5" fill="#3a615b"/><g fill="none" stroke="#3a615b" stroke-width="9" stroke-linecap="round" stroke-linejoin="miter" stroke-miterlimit="10"><path d="M138 85 L100 50 L60 90 L50 130"/><path d="M138 120 L85 105 L45 150 L38 195"/><path d="M138 160 L80 165 L45 215 L45 255"/><path d="M138 205 L95 225 L70 275 L72 312"/><path d="M255 62 L290 25 L335 55 L350 95"/><path d="M278 110 L325 95 L360 125 L375 150"/><path d="M162 225 L210 255 L250 295 L255 335"/><path d="M156 262 L185 300 L200 345"/></g><g fill="none" stroke="#3a615b" stroke-width="14" stroke-linecap="butt" stroke-linejoin="miter" stroke-miterlimit="10"><path d="M338 185 L355 250 L375 205 L395 250 L412 185"/><path d="M434 218 H496 V198 L484 182 H446 L434 198 V232 L448 250 H496"/><path d="M523 130 V250 M523 182 H565 L581 198 V234 L565 250 H523"/></g></g></g>
<g transform="translate(16.5,22)"><g transform="translate(30,0)"><path d="M215 12 V47" fill="none" stroke="#436a65" stroke-width="3" stroke-linecap="round"/><polygon points="138,50 168,50 168,250 153,308 138,250" fill="#436a65"/><circle cx="215" cy="110" r="52" fill="none" stroke="#436a65" stroke-width="22"/><circle cx="203" cy="100" r="6" fill="#436a65"/><circle cx="227" cy="100" r="6" fill="#436a65"/><circle cx="207" cy="122" r="3.5" fill="#436a65"/><circle cx="223" cy="122" r="3.5" fill="#436a65"/><g fill="none" stroke="#436a65" stroke-width="9" stroke-linecap="round" stroke-linejoin="miter" stroke-miterlimit="10"><path d="M138 85 L100 50 L60 90 L50 130"/><path d="M138 120 L85 105 L45 150 L38 195"/><path d="M138 160 L80 165 L45 215 L45 255"/><path d="M138 205 L95 225 L70 275 L72 312"/><path d="M255 62 L290 25 L335 55 L350 95"/><path d="M278 110 L325 95 L360 125 L375 150"/><path d="M162 225 L210 255 L250 295 L255 335"/><path d="M156 262 L185 300 L200 345"/></g><g fill="none" stroke="#436a65" stroke-width="14" stroke-linecap="butt" stroke-linejoin="miter" stroke-miterlimit="10"><path d="M338 185 L355 250 L375 205 L395 250 L412 185"/><path d="M434 218 H496 V198 L484 182 H446 L434 198 V232 L448 250 H496"/><path d="M523 130 V250 M523 182 H565 L581 198 V234 L565 250 H523"/></g></g></g>
<g transform="translate(15.0,20)"><g transform="translate(30,0)"><path d="M215 12 V47" fill="none" stroke="#4d746e" stroke-width="3" stroke-linecap="round"/><polygon points="138,50 168,50 168,250 153,308 138,250" fill="#4d746e"/><circle cx="215" cy="110" r="52" fill="none" stroke="#4d746e" stroke-width="22"/><circle cx="203" cy="100" r="6" fill="#4d746e"/><circle cx="227" cy="100" r="6" fill="#4d746e"/><circle cx="207" cy="122" r="3.5" fill="#4d746e"/><circle cx="223" cy="122" r="3.5" fill="#4d746e"/><g fill="none" stroke="#4d746e" stroke-width="9" stroke-linecap="round" stroke-linejoin="miter" stroke-miterlimit="10"><path d="M138 85 L100 50 L60 90 L50 130"/><path d="M138 120 L85 105 L45 150 L38 195"/><path d="M138 160 L80 165 L45 215 L45 255"/><path d="M138 205 L95 225 L70 275 L72 312"/><path d="M255 62 L290 25 L335 55 L350 95"/><path d="M278 110 L325 95 L360 125 L375 150"/><path d="M162 225 L210 255 L250 295 L255 335"/><path d="M156 262 L185 300 L200 345"/></g><g fill="none" stroke="#4d746e" stroke-width="14" stroke-linecap="butt" stroke-linejoin="miter" stroke-miterlimit="10"><path d="M338 185 L355 250 L375 205 L395 250 L412 185"/><path d="M434 218 H496 V198 L484 182 H446 L434 198 V232 L448 250 H496"/><path d="M523 130 V250 M523 182 H565 L581 198 V234 L565 250 H523"/></g></g></g>
<g transform="translate(13.5,18)"><g transform="translate(30,0)"><path d="M215 12 V47" fill="none" stroke="#577d77" stroke-width="3" stroke-linecap="round"/><polygon points="138,50 168,50 168,250 153,308 138,250" fill="#577d77"/><circle cx="215" cy="110" r="52" fill="none" stroke="#577d77" stroke-width="22"/><circle cx="203" cy="100" r="6" fill="#577d77"/><circle cx="227" cy="100" r="6" fill="#577d77"/><circle cx="207" cy="122" r="3.5" fill="#577d77"/><circle cx="223" cy="122" r="3.5" fill="#577d77"/><g fill="none" stroke="#577d77" stroke-width="9" stroke-linecap="round" stroke-linejoin="miter" stroke-miterlimit="10"><path d="M138 85 L100 50 L60 90 L50 130"/><path d="M138 120 L85 105 L45 150 L38 195"/><path d="M138 160 L80 165 L45 215 L45 255"/><path d="M138 205 L95 225 L70 275 L72 312"/><path d="M255 62 L290 25 L335 55 L350 95"/><path d="M278 110 L325 95 L360 125 L375 150"/><path d="M162 225 L210 255 L250 295 L255 335"/><path d="M156 262 L185 300 L200 345"/></g><g fill="none" stroke="#577d77" stroke-width="14" stroke-linecap="butt" stroke-linejoin="miter" stroke-miterlimit="10"><path d="M338 185 L355 250 L375 205 L395 250 L412 185"/><path d="M434 218 H496 V198 L484 182 H446 L434 198 V232 L448 250 H496"/><path d="M523 130 V250 M523 182 H565 L581 198 V234 L565 250 H523"/></g></g></g>
<g transform="translate(12.0,16)"><g transform="translate(30,0)"><path d="M215 12 V47" fill="none" stroke="#618680" stroke-width="3" stroke-linecap="round"/><polygon points="138,50 168,50 168,250 153,308 138,250" fill="#618680"/><circle cx="215" cy="110" r="52" fill="none" stroke="#618680" stroke-width="22"/><circle cx="203" cy="100" r="6" fill="#618680"/><circle cx="227" cy="100" r="6" fill="#618680"/><circle cx="207" cy="122" r="3.5" fill="#618680"/><circle cx="223" cy="122" r="3.5" fill="#618680"/><g fill="none" stroke="#618680" stroke-width="9" stroke-linecap="round" stroke-linejoin="miter" stroke-miterlimit="10"><path d="M138 85 L100 50 L60 90 L50 130"/><path d="M138 120 L85 105 L45 150 L38 195"/><path d="M138 160 L80 165 L45 215 L45 255"/><path d="M138 205 L95 225 L70 275 L72 312"/><path d="M255 62 L290 25 L335 55 L350 95"/><path d="M278 110 L325 95 L360 125 L375 150"/><path d="M162 225 L210 255 L250 295 L255 335"/><path d="M156 262 L185 300 L200 345"/></g><g fill="none" stroke="#618680" stroke-width="14" stroke-linecap="butt" stroke-linejoin="miter" stroke-miterlimit="10"><path d="M338 185 L355 250 L375 205 L395 250 L412 185"/><path d="M434 218 H496 V198 L484 182 H446 L434 198 V232 L448 250 H496"/><path d="M523 130 V250 M523 182 H565 L581 198 V234 L565 250 H523"/></g></g></g>
<g transform="translate(10.5,14)"><g transform="translate(30,0)"><path d="M215 12 V47" fill="none" stroke="#6a8f8a" stroke-width="3" stroke-linecap="round"/><polygon points="138,50 168,50 168,250 153,308 138,250" fill="#6a8f8a"/><circle cx="215" cy="110" r="52" fill="none" stroke="#6a8f8a" stroke-width="22"/><circle cx="203" cy="100" r="6" fill="#6a8f8a"/><circle cx="227" cy="100" r="6" fill="#6a8f8a"/><circle cx="207" cy="122" r="3.5" fill="#6a8f8a"/><circle cx="223" cy="122" r="3.5" fill="#6a8f8a"/><g fill="none" stroke="#6a8f8a" stroke-width="9" stroke-linecap="round" stroke-linejoin="miter" stroke-miterlimit="10"><path d="M138 85 L100 50 L60 90 L50 130"/><path d="M138 120 L85 105 L45 150 L38 195"/><path d="M138 160 L80 165 L45 215 L45 255"/><path d="M138 205 L95 225 L70 275 L72 312"/><path d="M255 62 L290 25 L335 55 L350 95"/><path d="M278 110 L325 95 L360 125 L375 150"/><path d="M162 225 L210 255 L250 295 L255 335"/><path d="M156 262 L185 300 L200 345"/></g><g fill="none" stroke="#6a8f8a" stroke-width="14" stroke-linecap="butt" stroke-linejoin="miter" stroke-miterlimit="10"><path d="M338 185 L355 250 L375 205 L395 250 L412 185"/><path d="M434 218 H496 V198 L484 182 H446 L434 198 V232 L448 250 H496"/><path d="M523 130 V250 M523 182 H565 L581 198 V234 L565 250 H523"/></g></g></g>
<g transform="translate(9.0,12)"><g transform="translate(30,0)"><path d="M215 12 V47" fill="none" stroke="#749893" stroke-width="3" stroke-linecap="round"/><polygon points="138,50 168,50 168,250 153,308 138,250" fill="#749893"/><circle cx="215" cy="110" r="52" fill="none" stroke="#749893" stroke-width="22"/><circle cx="203" cy="100" r="6" fill="#749893"/><circle cx="227" cy="100" r="6" fill="#749893"/><circle cx="207" cy="122" r="3.5" fill="#749893"/><circle cx="223" cy="122" r="3.5" fill="#749893"/><g fill="none" stroke="#749893" stroke-width="9" stroke-linecap="round" stroke-linejoin="miter" stroke-miterlimit="10"><path d="M138 85 L100 50 L60 90 L50 130"/><path d="M138 120 L85 105 L45 150 L38 195"/><path d="M138 160 L80 165 L45 215 L45 255"/><path d="M138 205 L95 225 L70 275 L72 312"/><path d="M255 62 L290 25 L335 55 L350 95"/><path d="M278 110 L325 95 L360 125 L375 150"/><path d="M162 225 L210 255 L250 295 L255 335"/><path d="M156 262 L185 300 L200 345"/></g><g fill="none" stroke="#749893" stroke-width="14" stroke-linecap="butt" stroke-linejoin="miter" stroke-miterlimit="10"><path d="M338 185 L355 250 L375 205 L395 250 L412 185"/><path d="M434 218 H496 V198 L484 182 H446 L434 198 V232 L448 250 H496"/><path d="M523 130 V250 M523 182 H565 L581 198 V234 L565 250 H523"/></g></g></g>
<g transform="translate(7.5,10)"><g transform="translate(30,0)"><path d="M215 12 V47" fill="none" stroke="#7ea19c" stroke-width="3" stroke-linecap="round"/><polygon points="138,50 168,50 168,250 153,308 138,250" fill="#7ea19c"/><circle cx="215" cy="110" r="52" fill="none" stroke="#7ea19c" stroke-width="22"/><circle cx="203" cy="100" r="6" fill="#7ea19c"/><circle cx="227" cy="100" r="6" fill="#7ea19c"/><circle cx="207" cy="122" r="3.5" fill="#7ea19c"/><circle cx="223" cy="122" r="3.5" fill="#7ea19c"/><g fill="none" stroke="#7ea19c" stroke-width="9" stroke-linecap="round" stroke-linejoin="miter" stroke-miterlimit="10"><path d="M138 85 L100 50 L60 90 L50 130"/><path d="M138 120 L85 105 L45 150 L38 195"/><path d="M138 160 L80 165 L45 215 L45 255"/><path d="M138 205 L95 225 L70 275 L72 312"/><path d="M255 62 L290 25 L335 55 L350 95"/><path d="M278 110 L325 95 L360 125 L375 150"/><path d="M162 225 L210 255 L250 295 L255 335"/><path d="M156 262 L185 300 L200 345"/></g><g fill="none" stroke="#7ea19c" stroke-width="14" stroke-linecap="butt" stroke-linejoin="miter" stroke-miterlimit="10"><path d="M338 185 L355 250 L375 205 L395 250 L412 185"/><path d="M434 218 H496 V198 L484 182 H446 L434 198 V232 L448 250 H496"/><path d="M523 130 V250 M523 182 H565 L581 198 V234 L565 250 H523"/></g></g></g>
<g transform="translate(6.0,8)"><g transform="translate(30,0)"><path d="M215 12 V47" fill="none" stroke="#88aba5" stroke-width="3" stroke-linecap="round"/><polygon points="138,50 168,50 168,250 153,308 138,250" fill="#88aba5"/><circle cx="215" cy="110" r="52" fill="none" stroke="#88aba5" stroke-width="22"/><circle cx="203" cy="100" r="6" fill="#88aba5"/><circle cx="227" cy="100" r="6" fill="#88aba5"/><circle cx="207" cy="122" r="3.5" fill="#88aba5"/><circle cx="223" cy="122" r="3.5" fill="#88aba5"/><g fill="none" stroke="#88aba5" stroke-width="9" stroke-linecap="round" stroke-linejoin="miter" stroke-miterlimit="10"><path d="M138 85 L100 50 L60 90 L50 130"/><path d="M138 120 L85 105 L45 150 L38 195"/><path d="M138 160 L80 165 L45 215 L45 255"/><path d="M138 205 L95 225 L70 275 L72 312"/><path d="M255 62 L290 25 L335 55 L350 95"/><path d="M278 110 L325 95 L360 125 L375 150"/><path d="M162 225 L210 255 L250 295 L255 335"/><path d="M156 262 L185 300 L200 345"/></g><g fill="none" stroke="#88aba5" stroke-width="14" stroke-linecap="butt" stroke-linejoin="miter" stroke-miterlimit="10"><path d="M338 185 L355 250 L375 205 L395 250 L412 185"/><path d="M434 218 H496 V198 L484 182 H446 L434 198 V232 L448 250 H496"/><path d="M523 130 V250 M523 182 H565 L581 198 V234 L565 250 H523"/></g></g></g>
<g transform="translate(4.5,6)"><g transform="translate(30,0)"><path d="M215 12 V47" fill="none" stroke="#91b4af" stroke-width="3" stroke-linecap="round"/><polygon points="138,50 168,50 168,250 153,308 138,250" fill="#91b4af"/><circle cx="215" cy="110" r="52" fill="none" stroke="#91b4af" stroke-width="22"/><circle cx="203" cy="100" r="6" fill="#91b4af"/><circle cx="227" cy="100" r="6" fill="#91b4af"/><circle cx="207" cy="122" r="3.5" fill="#91b4af"/><circle cx="223" cy="122" r="3.5" fill="#91b4af"/><g fill="none" stroke="#91b4af" stroke-width="9" stroke-linecap="round" stroke-linejoin="miter" stroke-miterlimit="10"><path d="M138 85 L100 50 L60 90 L50 130"/><path d="M138 120 L85 105 L45 150 L38 195"/><path d="M138 160 L80 165 L45 215 L45 255"/><path d="M138 205 L95 225 L70 275 L72 312"/><path d="M255 62 L290 25 L335 55 L350 95"/><path d="M278 110 L325 95 L360 125 L375 150"/><path d="M162 225 L210 255 L250 295 L255 335"/><path d="M156 262 L185 300 L200 345"/></g><g fill="none" stroke="#91b4af" stroke-width="14" stroke-linecap="butt" stroke-linejoin="miter" stroke-miterlimit="10"><path d="M338 185 L355 250 L375 205 L395 250 L412 185"/><path d="M434 218 H496 V198 L484 182 H446 L434 198 V232 L448 250 H496"/><path d="M523 130 V250 M523 182 H565 L581 198 V234 L565 250 H523"/></g></g></g>
<g transform="translate(3.0,4)"><g transform="translate(30,0)"><path d="M215 12 V47" fill="none" stroke="#9bbdb8" stroke-width="3" stroke-linecap="round"/><polygon points="138,50 168,50 168,250 153,308 138,250" fill="#9bbdb8"/><circle cx="215" cy="110" r="52" fill="none" stroke="#9bbdb8" stroke-width="22"/><circle cx="203" cy="100" r="6" fill="#9bbdb8"/><circle cx="227" cy="100" r="6" fill="#9bbdb8"/><circle cx="207" cy="122" r="3.5" fill="#9bbdb8"/><circle cx="223" cy="122" r="3.5" fill="#9bbdb8"/><g fill="none" stroke="#9bbdb8" stroke-width="9" stroke-linecap="round" stroke-linejoin="miter" stroke-miterlimit="10"><path d="M138 85 L100 50 L60 90 L50 130"/><path d="M138 120 L85 105 L45 150 L38 195"/><path d="M138 160 L80 165 L45 215 L45 255"/><path d="M138 205 L95 225 L70 275 L72 312"/><path d="M255 62 L290 25 L335 55 L350 95"/><path d="M278 110 L325 95 L360 125 L375 150"/><path d="M162 225 L210 255 L250 295 L255 335"/><path d="M156 262 L185 300 L200 345"/></g><g fill="none" stroke="#9bbdb8" stroke-width="14" stroke-linecap="butt" stroke-linejoin="miter" stroke-miterlimit="10"><path d="M338 185 L355 250 L375 205 L395 250 L412 185"/><path d="M434 218 H496 V198 L484 182 H446 L434 198 V232 L448 250 H496"/><path d="M523 130 V250 M523 182 H565 L581 198 V234 L565 250 H523"/></g></g></g>
<g transform="translate(1.5,2)"><g transform="translate(30,0)"><path d="M215 12 V47" fill="none" stroke="#a5c6c1" stroke-width="3" stroke-linecap="round"/><polygon points="138,50 168,50 168,250 153,308 138,250" fill="#a5c6c1"/><circle cx="215" cy="110" r="52" fill="none" stroke="#a5c6c1" stroke-width="22"/><circle cx="203" cy="100" r="6" fill="#a5c6c1"/><circle cx="227" cy="100" r="6" fill="#a5c6c1"/><circle cx="207" cy="122" r="3.5" fill="#a5c6c1"/><circle cx="223" cy="122" r="3.5" fill="#a5c6c1"/><g fill="none" stroke="#a5c6c1" stroke-width="9" stroke-linecap="round" stroke-linejoin="miter" stroke-miterlimit="10"><path d="M138 85 L100 50 L60 90 L50 130"/><path d="M138 120 L85 105 L45 150 L38 195"/><path d="M138 160 L80 165 L45 215 L45 255"/><path d="M138 205 L95 225 L70 275 L72 312"/><path d="M255 62 L290 25 L335 55 L350 95"/><path d="M278 110 L325 95 L360 125 L375 150"/><path d="M162 225 L210 255 L250 295 L255 335"/><path d="M156 262 L185 300 L200 345"/></g><g fill="none" stroke="#a5c6c1" stroke-width="14" stroke-linecap="butt" stroke-linejoin="miter" stroke-miterlimit="10"><path d="M338 185 L355 250 L375 205 L395 250 L412 185"/><path d="M434 218 H496 V198 L484 182 H446 L434 198 V232 L448 250 H496"/><path d="M523 130 V250 M523 182 H565 L581 198 V234 L565 250 H523"/></g></g></g>
<g transform="translate(30,0)"><path d="M215 12 V47" fill="none" stroke="#ffffff" stroke-width="3" stroke-linecap="round"/><polygon points="138,50 168,50 168,250 153,308 138,250" fill="#ffffff"/><circle cx="215" cy="110" r="52" fill="none" stroke="#ffffff" stroke-width="22"/><circle cx="203" cy="100" r="6" fill="#ffffff"/><circle cx="227" cy="100" r="6" fill="#ffffff"/><circle cx="207" cy="122" r="3.5" fill="#ffffff"/><circle cx="223" cy="122" r="3.5" fill="#ffffff"/><g fill="none" stroke="#ffffff" stroke-width="9" stroke-linecap="round" stroke-linejoin="miter" stroke-miterlimit="10"><path d="M138 85 L100 50 L60 90 L50 130"/><path d="M138 120 L85 105 L45 150 L38 195"/><path d="M138 160 L80 165 L45 215 L45 255"/><path d="M138 205 L95 225 L70 275 L72 312"/><path d="M255 62 L290 25 L335 55 L350 95"/><path d="M278 110 L325 95 L360 125 L375 150"/><path d="M162 225 L210 255 L250 295 L255 335"/><path d="M156 262 L185 300 L200 345"/></g><g fill="none" stroke="#ffffff" stroke-width="14" stroke-linecap="butt" stroke-linejoin="miter" stroke-miterlimit="10"><path d="M338 185 L355 250 L375 205 L395 250 L412 185"/><path d="M434 218 H496 V198 L484 182 H446 L434 198 V232 L448 250 H496"/><path d="M523 130 V250 M523 182 H565 L581 198 V234 L565 250 H523"/></g></g>
</svg>